<?xml version="1.0" encoding="utf-8"?>
<!-- Generator: Adobe Illustrator 18.0.0, SVG Export Plug-In . SVG Version: 6.00 Build 0)  -->
<!DOCTYPE svg PUBLIC "-//W3C//DTD SVG 1.1//EN" "http://www.w3.org/Graphics/SVG/1.1/DTD/svg11.dtd">
<svg version="1.1" id="Layer_1" xmlns="http://www.w3.org/2000/svg" xmlns:xlink="http://www.w3.org/1999/xlink" x="0px" y="0px"
	 width="2280px" height="200px" viewBox="0 0 2280 200" style="enable-background:new 0 0 2280 200;" xml:space="preserve">
<g>
	<g>
		<g>
			<circle style="fill:#FFFFFF;" cx="2035" cy="173.7" r="19.7"/>
			<path style="fill:#FFFFFF;" d="M2039,177.4c0-22.1-17.9-40-40-40s-40,17.9-40,40s17.9,13.9,40,13.9S2039,199.5,2039,177.4z"/>
			<path style="fill:#FFFFFF;" d="M1974,146c0-32.2-26.1-58.4-58.4-58.4c-32.2,0-58.4,26.1-58.4,58.4s26.1,40.4,58.4,40.4
				C1947.9,186.4,1974,178.3,1974,146z"/>
			<circle style="fill:#FFFFFF;" cx="1837" cy="71" r="69"/>
			<circle style="fill:#FFFFFF;" cx="1774" cy="68.9" r="42.3"/>
			<circle style="fill:#FFFFFF;" cx="1723.6" cy="80.3" r="26.5"/>
			<circle style="fill:#FFFFFF;" cx="1684" cy="131.9" r="47.7"/>
			<circle style="fill:#FFFFFF;" cx="1616" cy="152.7" r="37"/>
			<circle style="fill:#FFFFFF;" cx="1560" cy="131.9" r="39"/>
			<circle style="fill:#FFFFFF;" cx="1511" cy="136.9" r="49"/>
			<circle style="fill:#FFFFFF;" cx="1462.4" cy="159.4" r="27.7"/>
			<circle style="fill:#FFFFFF;" cx="1754" cy="131.9" r="51.7"/>
			<circle style="fill:#FFFFFF;" cx="1829" cy="152.3" r="36.9"/>
		</g>
		<g>
			<defs>
				<path id="SVGID_1_" d="M2035,153.9c-1.2,0-2.3,0.1-3.4,0.3c-7.2-10.2-19.1-16.8-32.6-16.8c-9.5,0-18.2,3.3-25,8.8
					c0-0.1,0-0.1,0-0.2c0-32.2-26.1-58.4-58.4-58.4c-4.1,0-8.1,0.4-12,1.2c1.5-5.7,2.4-11.7,2.4-17.9c0-38.1-30.9-69-69-69
					c-21.7,0-41,10-53.7,25.7c-3-0.7-6.1-1-9.3-1c-18.8,0-34.7,12.2-40.2,29.2c-3.1-1.3-6.6-2-10.2-2c-14.6,0-26.5,11.9-26.5,26.5
					c0,2.1,0.2,4.1,0.7,6c-4.4-1.3-9-2-13.8-2c-23.1,0-42.3,16.4-46.7,38.2c-6-4.2-13.3-6.7-21.3-6.7c-6.8,0-13.2,1.8-18.6,5
					c-4.8-16.1-19.7-27.8-37.4-27.8c-7,0-13.5,1.8-19.2,5.1c-8.3-6.3-18.6-10.1-29.8-10.1c-25.3,0-46.1,19.2-48.7,43.8
					c-15.3,0-27.6,12.4-27.6,27.7c0,15.3,12.4,27.7,27.7,27.7c8.4,0,16-3.8,21-9.7c7.9,5.4,17.4,8.5,27.6,8.5
					c14.7,0,28-6.5,36.9-16.8c3.8,1.2,7.8,1.9,12.1,1.9c7.7,0,15-2.3,21-6.2c5,14.5,18.8,24.9,35,24.9c15.8,0,29.2-9.9,34.5-23.7
					c8.6,8.5,20.4,13.7,33.5,13.7c12.4,0,23.7-4.7,32.2-12.5c9.4,10.1,22.9,16.5,37.8,16.5c16.2,0,30.6-7.4,40.1-19.1
					c5,14.4,18.7,24.7,34.9,24.7c15,0,28-9,33.7-21.9c9.3,14.7,29.5,19,52.9,19c17.2,0,32.7-2.3,43.4-9.4c0,0.1,0,0.3,0,0.4
					c0,22.1,17.9,13.9,40,13.9c11.8,0,22.5,2.3,29.8,1.1c1.9,0.6,4,1,6.2,1c10.9,0,19.7-8.8,19.7-19.7
					C2054.8,162.8,2045.9,153.9,2035,153.9z"/>
			</defs>
			<clipPath id="SVGID_2_">
				<use xlink:href="#SVGID_1_"  style="overflow:visible;"/>
			</clipPath>
			<path style="clip-path:url(#SVGID_2_);fill:#F4F4F4;" d="M1843.2,2c-55.3,0-62.1,70.3-37.4,87.8c0,0-32.3-15.6-56.2,8.3
				s-9.7,56.6-9.7,56.6l195.1,20.1h183c0,0,9.8-17.4,0-39.5c-7-15.8-24.3-25.7-43.8-17.9c-13.9,5.5-120.5-167.5-120.5-167.5
				L1843.2,2z"/>
		</g>
		<g>
			<circle style="fill:#FFFFFF;" cx="564.9" cy="103.3" r="50"/>
			<circle style="fill:#FFFFFF;" cx="620.7" cy="137.9" r="36.8"/>
			<circle style="fill:#FFFFFF;" cx="674.1" cy="165.7" r="34"/>
			<circle style="fill:#FFFFFF;" cx="716" cy="162.9" r="17.5"/>
			<path style="fill:#FFFFFF;" d="M777.8,174.2c0-16.4-13.3-29.7-29.7-29.7s-29.7,13.3-29.7,29.7s13.3,9.7,29.7,9.7
				S777.8,190.6,777.8,174.2z"/>
			<path style="fill:#FFFFFF;" d="M596.8,169.7c0-20.2-16.4-36.7-36.7-36.7s-36.7,16.4-36.7,36.7s16.4,26.7,36.7,26.7
				S596.8,189.9,596.8,169.7z"/>
			<circle style="fill:#FFFFFF;" cx="507.4" cy="153.3" r="37.3"/>
			<path style="fill:#FFFFFF;" d="M480.1,174.7c0-16.6-13.4-30-30-30c-16.6,0-30,13.4-30,30s13.4,20,30,20
				C466.7,194.7,480.1,191.3,480.1,174.7z"/>
			<circle style="fill:#FFFFFF;" cx="499.6" cy="137.6" r="31.5"/>
			<circle style="fill:#FFFFFF;" cx="444" cy="133.6" r="36.9"/>
			<circle style="fill:#FFFFFF;" cx="396.1" cy="154.6" r="24"/>
			<path style="fill:#FFFFFF;" d="M384.1,177.2c0-16.9-13.7-30.5-30.5-30.5s-30.5,13.7-30.5,30.5s13.7,10.5,30.5,10.5
				S384.1,194.1,384.1,177.2z"/>
		</g>
		<g>
			<defs>
				<path id="SVGID_3_" d="M748.1,144.4c-7.3,0-13.9,2.6-19.1,6.9c-3.2-3.6-7.8-5.9-13-5.9c-4.5,0-8.7,1.7-11.8,4.6
					c-5.7-10.9-17-18.3-30.1-18.3c-6,0-11.7,1.6-16.6,4.3c-0.9-19.5-17-35-36.8-35c-2,0-3.9,0.2-5.8,0.5
					c-0.9-26.8-22.9-48.2-50-48.2c-27.6,0-50,22.4-50,50c0,2.4,0.2,4.8,0.5,7.1c-4.7-2.7-10.1-4.3-15.8-4.3
					c-9.1,0-17.3,3.9-23.1,10.1c-6.2-11.6-18.5-19.5-32.6-19.5c-20.3,0-36.7,16.4-36.9,36.6c-3.3-1.7-7-2.6-10.9-2.6
					c-12.7,0-23.1,9.9-23.9,22.4c-5.1-4-11.6-6.3-18.6-6.3c-16.9,0-30.5,13.7-30.5,30.5s13.7,10.5,30.5,10.5s30.5,6.3,30.5-10.5
					c0-0.6,0-1.2-0.1-1.9c3.5,2.1,7.7,3.3,12.1,3.3c11,0,20.3-7.5,23.1-17.6c1,0.9,2,1.7,3,2.5c-1.4,3.5-2.2,7.3-2.2,11.2
					c0,16.6,13.4,20,30,20c15.2,0,27.8-2.9,29.7-16.2c6.8,7.5,16.7,12.2,27.6,12.2c7.5,0,14.5-2.2,20.3-6
					c6.2,8.6,18.3,11.7,32.4,11.7c20.2,0,36.7-6.4,36.7-26.7c0-1.4-0.1-2.7-0.2-4c6.5,5.6,14.9,9.1,24.2,9.1
					c7.2,0,13.9-2.1,19.6-5.6c1.7,17.2,16.2,30.6,33.8,30.6c14.7,0,27.2-9.3,32-22.4c2.8,2,6.3,3.1,10,3.1c1.1,0,2.2-0.1,3.2-0.3
					c3.2,8.6,14.9,3.8,28.9,3.8c16.4,0,29.7,6.7,29.7-9.7S764.5,144.4,748.1,144.4z"/>
			</defs>
			<clipPath id="SVGID_4_">
				<use xlink:href="#SVGID_3_"  style="overflow:visible;"/>
			</clipPath>
			<path style="clip-path:url(#SVGID_4_);fill:#F4F4F4;" d="M564.9,53.3c30.5,0,48.9,51.1,21.7,70.5c0,0,11.2-10.9,28.3,0
				s12.8,35.6,5.7,40.8s-105.8,29.2-105.8,29.2l-38.1-19.2c0,0-6.3-34.7,19-50.1c12.7-7.7,21.1-7.4,21.1-7.4l-25.5-56.6L564.9,53.3z
				"/>
			<path style="clip-path:url(#SVGID_4_);fill:#F4F4F4;" d="M424.9,102c23.2-12.3,43.2,13.6,43.2,24.6c0,11,2.5,29.2-18,36.4
				c-20.5,7.2-64,26-66.7,7.6c-2.7-18.4,1-35.2,12.8-39.9c11.7-4.6,0-29.6,0-29.6L424.9,102z"/>
		</g>
		<circle style="fill:#F4F4F4;" cx="1566.8" cy="145.6" r="27.6"/>
		<circle style="fill:#F4F4F4;" cx="1530.9" cy="169.7" r="27.1"/>
		<circle style="fill:#F4F4F4;" cx="1726" cy="139.9" r="39"/>
		<g>
			<g>
				<path style="fill:#FFFFFF;" d="M1364.5,87.5c0-5.6-4.5-10.1-10.1-10.1s-10.1,4.5-10.1,10.1s4.5,8.2,10.1,8.2
					S1364.5,93.1,1364.5,87.5z"/>
				<circle style="fill:#FFFFFF;" cx="1365.5" cy="88.6" r="6.1"/>
				<path style="fill:#FFFFFF;" d="M1379.4,95.7c-1.9,0.1-3.9,0.1-5.7,0c-2.9-0.2-5.8,0-8.6,0c-3.6,0-7.2-0.2-10.8,0
					c-0.6-0.9,1.5-1.5,2.2-1.8c1.2-0.5,2.4-0.8,3.7-1c5.5-1.2,10.9-2,16.4-1c2.7,0.5,4.8,1.5,7.5,1.8c1.9,0.3,4.1,0.1,5.9,0.6
					c0.8,0.2,1.5,0.4,1.8,0.8c-0.1-0.1-8.6,0.5-9.5,0.5C1381.4,95.7,1380.4,95.7,1379.4,95.7z"/>
				<path style="fill:#FFFFFF;" d="M1352.6,94.2c0.1-1-0.5-2.1-1.2-2.8c-0.8-0.7-1.7-1.2-2.7-1.6c-1-0.4-2-0.9-3-1
					c-2.2-0.2-4.2,1.1-6.2,1.9c-4.7,1.9-10.3,1.3-14.8,3.8c5.3-0.1,10.6-0.1,16-0.2c1.8,0,3.6,0,5.4,0.1
					C1348.3,94.7,1350.6,95.2,1352.6,94.2z"/>
			</g>
			<path style="fill:#F4F4F4;" d="M1373.2,94c-2.3-1-6.2-0.6-6.2-0.6c0.5-0.8,0.1-4.1-2.5-4.6c-3.5-0.7-5.4,2-5.4,2
				c0.6-0.9,1.1-3.8-1-7.6c-2.1-3.8-9.9-3.6-12.7,0c-0.7,1.3-1.1,2.8-1.1,4.5c0,0.4,0,0.8,0.1,1.2c-1.7,0.3-3.3,1.2-4.9,1.9
				c-4.7,1.9-10.3,1.3-14.8,3.8c5.3-0.1,10.6-0.1,16-0.2c1.8,0,3.6,0,5.4,0.1c1,0.1,2.1,0.3,3.2,0.3c1.5,0.6,3.2,0.9,5,0.9
				c0,0,0,0,0,0.1c3.6-0.2,7.3,0,10.9,0c2.9,0,5.8-0.2,8.7,0c1.9,0.1,3.8,0.1,5.8,0c1,0,2-0.1,2.9-0.1c0.2,0,0.7,0,1.4-0.1
				C1382.5,95.4,1375.5,95,1373.2,94z"/>
		</g>
		<g>
			<g>
				<path style="fill:#FFFFFF;" d="M749.2,73.2c0-5.6-4.5-10.1-10.1-10.1S729,67.6,729,73.2c0,5.6,4.5,8.2,10.1,8.2
					S749.2,78.8,749.2,73.2z"/>
				<circle style="fill:#FFFFFF;" cx="750.2" cy="74.3" r="6.1"/>
				<path style="fill:#FFFFFF;" d="M764.2,81.4c-1.9,0.1-3.9,0.1-5.7,0c-2.9-0.2-5.8,0-8.6,0c-3.6,0-7.2-0.2-10.8,0
					c-0.6-0.9,1.5-1.5,2.2-1.8c1.2-0.5,2.4-0.8,3.7-1c5.5-1.2,10.9-2,16.4-1c2.7,0.5,4.8,1.5,7.5,1.8c1.9,0.3,4.1,0.1,5.9,0.6
					c0.8,0.2,1.5,0.4,1.8,0.8c-0.1-0.1-8.6,0.5-9.5,0.5C766.1,81.3,765.1,81.4,764.2,81.4z"/>
				<path style="fill:#FFFFFF;" d="M737.3,79.9c0.1-1-0.5-2.1-1.2-2.8c-0.8-0.7-1.7-1.2-2.7-1.6c-1-0.4-2-0.9-3-1
					c-2.2-0.2-4.2,1.1-6.2,1.9c-4.7,1.9-10.3,1.3-14.8,3.8c5.3-0.1,10.6-0.1,16-0.2c1.8,0,3.6,0,5.4,0.1
					C733,80.4,735.3,80.9,737.3,79.9z"/>
			</g>
			<path style="fill:#F4F4F4;" d="M757.9,79.7c-2.3-1-6.2-0.6-6.2-0.6c0.5-0.8,0.1-4.1-2.5-4.6c-3.5-0.7-5.4,2-5.4,2
				c0.6-0.9,1.1-3.8-1-7.6c-2.1-3.8-9.9-3.6-12.7,0c-0.7,1.3-1.1,2.8-1.1,4.5c0,0.4,0,0.8,0.1,1.2c-1.7,0.3-3.3,1.2-4.9,1.9
				c-4.7,1.9-10.3,1.3-14.8,3.8c5.3-0.1,10.6-0.1,16-0.2c1.8,0,3.6,0,5.4,0.1c1,0.1,2.1,0.3,3.2,0.3c1.5,0.6,3.2,0.9,5,0.9
				c0,0,0,0,0,0.1c3.6-0.2,7.3,0,10.9,0c2.9,0,5.8-0.2,8.7,0c1.9,0.1,3.8,0.1,5.8,0c1,0,2-0.1,2.9-0.1c0.2,0,0.7,0,1.4-0.1
				C767.3,81.1,760.2,80.7,757.9,79.7z"/>
		</g>
	</g>
	<g>
		<g>
			<path style="fill:#DBDBDB;" d="M1475,161.6l3.6-15.3c0.2-1,1.2-1.8,2.2-1.8l0,0c1.1,0,2,0.7,2.2,1.8l3.6,15.3H1475z"/>
		</g>
		<path style="fill:#DBDBDB;" d="M1484.9,159.2h-8.1c-1,0-1.7,0.8-1.7,1.7v0.6h11.6V161C1486.6,160,1485.8,159.2,1484.9,159.2z"/>
		<path style="fill:#DBDBDB;" d="M1480.8,155.9L1480.8,155.9c-0.7,0-1.3,0.6-1.3,1.3v2h2.5v-2
			C1482.1,156.5,1481.5,155.9,1480.8,155.9z"/>
		<g>
			<path style="fill:#DBDBDB;" d="M1480.1,157.5c0-0.7,0.6-1.3,1.3-1.3c0.1,0,0.2,0,0.2,0c-0.2-0.2-0.5-0.3-0.8-0.3
				c-0.7,0-1.3,0.6-1.3,1.3v2h0.6V157.5z"/>
		</g>
		<path style="fill:#DBDBDB;" d="M1482.8,147.7h-4c-0.3,0-0.6-0.3-0.6-0.6l0,0c0-0.3,0.2-0.6,0.6-0.6h4.1c0.3,0,0.6,0.2,0.6,0.6l0,0
			C1483.4,147.4,1483.1,147.7,1482.8,147.7z"/>
		<g>
			<path style="fill:#DBDBDB;" d="M1479.1,151.9h-0.7c-0.3,0-0.5-0.2-0.5-0.5l0,0c0-0.3,0.2-0.5,0.5-0.5h0.7c0.3,0,0.5,0.2,0.5,0.5
				l0,0C1479.5,151.7,1479.3,151.9,1479.1,151.9z"/>
			<path style="fill:#DBDBDB;" d="M1481.5,151.9h-0.7c-0.3,0-0.5-0.2-0.5-0.5l0,0c0-0.3,0.2-0.5,0.5-0.5h0.7c0.3,0,0.5,0.2,0.5,0.5
				l0,0C1481.9,151.7,1481.7,151.9,1481.5,151.9z"/>
			<path style="fill:#DBDBDB;" d="M1480.3,154.9h-0.7c-0.3,0-0.5-0.2-0.5-0.5l0,0c0-0.3,0.2-0.5,0.5-0.5h0.7c0.3,0,0.5,0.2,0.5,0.5
				l0,0C1480.7,154.7,1480.5,154.9,1480.3,154.9z"/>
			<path style="fill:#DBDBDB;" d="M1482.7,153.4h-0.7c-0.3,0-0.5-0.2-0.5-0.5l0,0c0-0.3,0.2-0.5,0.5-0.5h0.7c0.3,0,0.5,0.2,0.5,0.5
				l0,0C1483.1,153.2,1482.9,153.4,1482.7,153.4z"/>
			<path style="fill:#DBDBDB;" d="M1480.3,150.4h-0.7c-0.3,0-0.5-0.2-0.5-0.5l0,0c0-0.3,0.2-0.5,0.5-0.5h0.7c0.3,0,0.5,0.2,0.5,0.5
				l0,0C1480.7,150.2,1480.5,150.4,1480.3,150.4z"/>
			<path style="fill:#DBDBDB;" d="M1482.7,150.4h-0.7c-0.3,0-0.5-0.2-0.5-0.5l0,0c0-0.3,0.2-0.5,0.5-0.5h0.7c0.3,0,0.5,0.2,0.5,0.5
				l0,0C1483.1,150.2,1482.9,150.4,1482.7,150.4z"/>
		</g>
		<g>
			<g>
				<g>
					<path style="fill:#DBDBDB;" d="M1473.1,139.4L1473.1,139.4c-0.2,0.2-0.2,0.4,0,0.6l7.1,7.1c0.2,0.2,0.4,0.2,0.6,0v0
						c0.2-0.2,0.2-0.4,0-0.6l-7.1-7.1C1473.5,139.2,1473.3,139.2,1473.1,139.4z"/>
					<path style="fill:#DBDBDB;" d="M1478,142.8l-0.7,0.7l-4.2-4.2l0.7-0.7c0.5-0.5,1.2-0.5,1.7,0l2.5,2.5
						C1478.5,141.6,1478.5,142.3,1478,142.8z"/>
				</g>
				<g>
					<path style="fill:#DBDBDB;" d="M1488.5,154.7L1488.5,154.7c0.2-0.2,0.2-0.4,0-0.6l-7.1-7.1c-0.2-0.2-0.4-0.2-0.6,0l0,0
						c-0.2,0.2-0.2,0.4,0,0.6l7.1,7.1C1488,154.9,1488.3,154.9,1488.5,154.7z"/>
					<path style="fill:#DBDBDB;" d="M1483.6,151.3l0.7-0.7l4.2,4.2l-0.7,0.7c-0.5,0.5-1.2,0.5-1.7,0l-2.5-2.5
						C1483.1,152.5,1483.1,151.8,1483.6,151.3z"/>
				</g>
			</g>
			<g>
				<g>
					<path style="fill:#DBDBDB;" d="M1473.1,154.7L1473.1,154.7c0.2,0.2,0.4,0.2,0.6,0l7.1-7.1c0.2-0.2,0.2-0.4,0-0.6v0
						c-0.2-0.2-0.4-0.2-0.6,0l-7.1,7.1C1472.9,154.3,1472.9,154.6,1473.1,154.7z"/>
					<path style="fill:#DBDBDB;" d="M1476.5,149.8l0.7,0.7l-4.2,4.2l-0.7-0.7c-0.5-0.5-0.5-1.2,0-1.7l2.5-2.5
						C1475.3,149.4,1476.1,149.4,1476.5,149.8z"/>
				</g>
				<g>
					<path style="fill:#DBDBDB;" d="M1488.5,139.4L1488.5,139.4c-0.2-0.2-0.4-0.2-0.6,0l-7.1,7.1c-0.2,0.2-0.2,0.4,0,0.6l0,0
						c0.2,0.2,0.4,0.2,0.6,0l7.1-7.1C1488.6,139.8,1488.6,139.5,1488.5,139.4z"/>
					<path style="fill:#DBDBDB;" d="M1485.1,144.3l-0.7-0.7l4.2-4.2l0.7,0.7c0.5,0.5,0.5,1.2,0,1.7l-2.5,2.5
						C1486.3,144.7,1485.5,144.7,1485.1,144.3z"/>
				</g>
			</g>
		</g>
		<g>
			<circle style="fill:#DBDBDB;" cx="1480.8" cy="147.1" r="1.1"/>
			<circle style="fill:#DBDBDB;" cx="1480.8" cy="147.1" r="0.7"/>
		</g>
	</g>
	<g>
		<g>
			<path style="fill:#DBDBDB;" d="M869.7,158.9l3.6-15.3c0.2-1,1.2-1.8,2.2-1.8l0,0c1.1,0,2,0.7,2.2,1.8l3.6,15.3H869.7z"/>
		</g>
		<path style="fill:#DBDBDB;" d="M879.6,156.5h-8.1c-1,0-1.7,0.8-1.7,1.7v0.6h11.6v-0.6C881.3,157.3,880.5,156.5,879.6,156.5z"/>
		<path style="fill:#DBDBDB;" d="M875.5,153.3L875.5,153.3c-0.7,0-1.3,0.6-1.3,1.3v2h2.5v-2C876.7,153.8,876.2,153.3,875.5,153.3z"
			/>
		<g>
			<path style="fill:#DBDBDB;" d="M874.8,154.8c0-0.7,0.6-1.3,1.3-1.3c0.1,0,0.2,0,0.2,0c-0.2-0.2-0.5-0.3-0.8-0.3
				c-0.7,0-1.3,0.6-1.3,1.3v2h0.6V154.8z"/>
		</g>
		<path style="fill:#DBDBDB;" d="M877.5,145h-4c-0.3,0-0.6-0.3-0.6-0.6l0,0c0-0.3,0.2-0.6,0.6-0.6h4.1c0.3,0,0.6,0.2,0.6,0.6l0,0
			C878.1,144.7,877.8,145,877.5,145z"/>
		<g>
			<path style="fill:#DBDBDB;" d="M873.8,149.2H873c-0.3,0-0.5-0.2-0.5-0.5l0,0c0-0.3,0.2-0.5,0.5-0.5h0.7c0.3,0,0.5,0.2,0.5,0.5
				l0,0C874.2,149,874,149.2,873.8,149.2z"/>
			<path style="fill:#DBDBDB;" d="M876.2,149.2h-0.7c-0.3,0-0.5-0.2-0.5-0.5l0,0c0-0.3,0.2-0.5,0.5-0.5h0.7c0.3,0,0.5,0.2,0.5,0.5
				l0,0C876.6,149,876.4,149.2,876.2,149.2z"/>
			<path style="fill:#DBDBDB;" d="M875,152.2h-0.7c-0.3,0-0.5-0.2-0.5-0.5l0,0c0-0.3,0.2-0.5,0.5-0.5h0.7c0.3,0,0.5,0.2,0.5,0.5l0,0
				C875.4,152,875.2,152.2,875,152.2z"/>
			<path style="fill:#DBDBDB;" d="M877.4,150.7h-0.7c-0.3,0-0.5-0.2-0.5-0.5l0,0c0-0.3,0.2-0.5,0.5-0.5h0.7c0.3,0,0.5,0.2,0.5,0.5
				l0,0C877.8,150.5,877.6,150.7,877.4,150.7z"/>
			<path style="fill:#DBDBDB;" d="M875,147.7h-0.7c-0.3,0-0.5-0.2-0.5-0.5l0,0c0-0.3,0.2-0.5,0.5-0.5h0.7c0.3,0,0.5,0.2,0.5,0.5l0,0
				C875.4,147.5,875.2,147.7,875,147.7z"/>
			<path style="fill:#DBDBDB;" d="M877.4,147.7h-0.7c-0.3,0-0.5-0.2-0.5-0.5l0,0c0-0.3,0.2-0.5,0.5-0.5h0.7c0.3,0,0.5,0.2,0.5,0.5
				l0,0C877.8,147.5,877.6,147.7,877.4,147.7z"/>
		</g>
		<g>
			<g>
				<g>
					<path style="fill:#DBDBDB;" d="M867.8,136.7L867.8,136.7c-0.2,0.2-0.2,0.4,0,0.6l7.1,7.1c0.2,0.2,0.4,0.2,0.6,0l0,0
						c0.2-0.2,0.2-0.4,0-0.6l-7.1-7.1C868.2,136.5,868,136.5,867.8,136.7z"/>
					<path style="fill:#DBDBDB;" d="M872.7,140.1l-0.7,0.7l-4.2-4.2l0.7-0.7c0.5-0.5,1.2-0.5,1.7,0l2.5,2.5
						C873.2,138.9,873.2,139.6,872.7,140.1z"/>
				</g>
				<g>
					<path style="fill:#DBDBDB;" d="M883.2,152.1L883.2,152.1c0.2-0.2,0.2-0.4,0-0.6l-7.1-7.1c-0.2-0.2-0.4-0.2-0.6,0l0,0
						c-0.2,0.2-0.2,0.4,0,0.6l7.1,7.1C882.7,152.2,883,152.2,883.2,152.1z"/>
					<path style="fill:#DBDBDB;" d="M878.3,148.6l0.7-0.7l4.2,4.2l-0.7,0.7c-0.5,0.5-1.2,0.5-1.7,0l-2.5-2.5
						C877.8,149.8,877.8,149.1,878.3,148.6z"/>
				</g>
			</g>
			<g>
				<g>
					<path style="fill:#DBDBDB;" d="M867.8,152.1L867.8,152.1c0.2,0.2,0.4,0.2,0.6,0l7.1-7.1c0.2-0.2,0.2-0.4,0-0.6l0,0
						c-0.2-0.2-0.4-0.2-0.6,0l-7.1,7.1C867.6,151.6,867.6,151.9,867.8,152.1z"/>
					<path style="fill:#DBDBDB;" d="M871.2,147.2l0.7,0.7l-4.2,4.2l-0.7-0.7c-0.5-0.5-0.5-1.2,0-1.7l2.5-2.5
						C870,146.7,870.8,146.7,871.2,147.2z"/>
				</g>
				<g>
					<path style="fill:#DBDBDB;" d="M883.2,136.7L883.2,136.7c-0.2-0.2-0.4-0.2-0.6,0l-7.1,7.1c-0.2,0.2-0.2,0.4,0,0.6l0,0
						c0.2,0.2,0.4,0.2,0.6,0l7.1-7.1C883.3,137.1,883.3,136.8,883.2,136.7z"/>
					<path style="fill:#DBDBDB;" d="M879.7,141.6l-0.7-0.7l4.2-4.2l0.7,0.7c0.5,0.5,0.5,1.2,0,1.7l-2.5,2.5
						C881,142,880.2,142,879.7,141.6z"/>
				</g>
			</g>
		</g>
		<g>
			<circle style="fill:#DBDBDB;" cx="875.5" cy="144.4" r="1.1"/>
			<circle style="fill:#DBDBDB;" cx="875.5" cy="144.4" r="0.7"/>
		</g>
	</g>
	<g>
		<g>
			<path style="fill:#DBDBDB;" d="M1003.8,169.7l5.4-23c0.4-1.5,1.7-2.6,3.3-2.6l0,0c1.6,0,3,1.1,3.3,2.6l5.4,23H1003.8z"/>
		</g>
		<path style="fill:#DBDBDB;" d="M1019.5,166.2h-13.9c-1,0-1.7,0.8-1.7,1.7v1.8h17.4v-1.8C1021.2,166.9,1020.4,166.2,1019.5,166.2z"
			/>
		<path style="fill:#DBDBDB;" d="M1013.1,161.2h-1.3c-0.7,0-1.3,0.6-1.3,1.3v3.7h3.8v-3.7C1014.4,161.8,1013.8,161.2,1013.1,161.2z"
			/>
		<g>
			<path style="fill:#DBDBDB;" d="M1011.5,163.6c0-1,0.8-1.9,1.9-1.9c0.1,0,0.2,0,0.4,0c-0.3-0.3-0.8-0.5-1.3-0.5
				c-1,0-1.9,0.8-1.9,1.9v3.1h0.9V163.6z"/>
		</g>
		<path style="fill:#DBDBDB;" d="M1015.8,148.8h-6.6c-0.3,0-0.6-0.3-0.6-0.6v-0.6c0-0.3,0.2-0.6,0.6-0.6h6.8c0.3,0,0.6,0.2,0.6,0.6
			v0.6C1016.4,148.5,1016.1,148.8,1015.8,148.8z"/>
		<g>
			<path style="fill:#DBDBDB;" d="M1010.1,155.1h-1.5c-0.3,0-0.5-0.2-0.5-0.5v-0.5c0-0.3,0.2-0.5,0.5-0.5h1.5c0.3,0,0.5,0.2,0.5,0.5
				v0.5C1010.6,154.9,1010.4,155.1,1010.1,155.1z"/>
			<path style="fill:#DBDBDB;" d="M1013.7,155.1h-1.5c-0.3,0-0.5-0.2-0.5-0.5v-0.5c0-0.3,0.2-0.5,0.5-0.5h1.5c0.3,0,0.5,0.2,0.5,0.5
				v0.5C1014.2,154.9,1014,155.1,1013.7,155.1z"/>
			<path style="fill:#DBDBDB;" d="M1011.9,159.6h-1.5c-0.3,0-0.5-0.2-0.5-0.5v-0.5c0-0.3,0.2-0.5,0.5-0.5h1.5c0.3,0,0.5,0.2,0.5,0.5
				v0.5C1012.4,159.4,1012.2,159.6,1011.9,159.6z"/>
			<path style="fill:#DBDBDB;" d="M1015.5,157.4h-1.5c-0.3,0-0.5-0.2-0.5-0.5v-0.5c0-0.3,0.2-0.5,0.5-0.5h1.5c0.3,0,0.5,0.2,0.5,0.5
				v0.5C1016,157.2,1015.8,157.4,1015.5,157.4z"/>
			<path style="fill:#DBDBDB;" d="M1011.9,152.9h-1.5c-0.3,0-0.5-0.2-0.5-0.5v-0.5c0-0.3,0.2-0.5,0.5-0.5h1.5c0.3,0,0.5,0.2,0.5,0.5
				v0.5C1012.4,152.7,1012.2,152.9,1011.9,152.9z"/>
			<path style="fill:#DBDBDB;" d="M1015.5,152.9h-1.5c-0.3,0-0.5-0.2-0.5-0.5v-0.5c0-0.3,0.2-0.5,0.5-0.5h1.5c0.3,0,0.5,0.2,0.5,0.5
				v0.5C1016,152.7,1015.8,152.9,1015.5,152.9z"/>
		</g>
		<g>
			<g>
				<g>
					<path style="fill:#DBDBDB;" d="M1001.1,136.2l-0.3,0.3c-0.2,0.2-0.2,0.4,0,0.6l10.9,10.9c0.2,0.2,0.4,0.2,0.6,0l0.3-0.3
						c0.2-0.2,0.2-0.4,0-0.6l-10.9-10.9C1001.5,136.1,1001.3,136.1,1001.1,136.2z"/>
					<path style="fill:#DBDBDB;" d="M1008.7,141.1l-1.5,1.5l-6.2-6.2l1.5-1.5c0.5-0.5,1.2-0.5,1.7,0l4.6,4.6
						C1009.2,139.9,1009.2,140.6,1008.7,141.1z"/>
				</g>
				<g>
					<path style="fill:#DBDBDB;" d="M1023.9,159.6l0.3-0.3c0.2-0.2,0.2-0.4,0-0.6l-10.9-10.9c-0.2-0.2-0.4-0.2-0.6,0l-0.3,0.3
						c-0.2,0.2-0.2,0.4,0,0.6l10.9,10.9C1023.4,159.7,1023.7,159.7,1023.9,159.6z"/>
					<path style="fill:#DBDBDB;" d="M1016.2,154.7l1.5-1.5l6.2,6.2l-1.5,1.5c-0.5,0.5-1.2,0.5-1.7,0l-4.6-4.6
						C1015.8,155.9,1015.8,155.2,1016.2,154.7z"/>
				</g>
			</g>
			<g>
				<g>
					<path style="fill:#DBDBDB;" d="M1000.8,159.3l0.3,0.3c0.2,0.2,0.4,0.2,0.6,0l10.9-10.9c0.2-0.2,0.2-0.4,0-0.6l-0.3-0.3
						c-0.2-0.2-0.4-0.2-0.6,0l-10.9,10.9C1000.6,158.8,1000.6,159.1,1000.8,159.3z"/>
					<path style="fill:#DBDBDB;" d="M1005.7,151.7l1.5,1.5l-6.2,6.2l-1.5-1.5c-0.5-0.5-0.5-1.2,0-1.7l4.6-4.6
						C1004.5,151.2,1005.2,151.2,1005.7,151.7z"/>
				</g>
				<g>
					<path style="fill:#DBDBDB;" d="M1024.2,136.5l-0.3-0.3c-0.2-0.2-0.4-0.2-0.6,0l-10.9,10.9c-0.2,0.2-0.2,0.4,0,0.6l0.3,0.3
						c0.2,0.2,0.4,0.2,0.6,0l10.9-10.9C1024.3,137,1024.3,136.7,1024.2,136.5z"/>
					<path style="fill:#DBDBDB;" d="M1019.3,144.1l-1.5-1.5l6.2-6.2l1.5,1.5c0.5,0.5,0.5,1.2,0,1.7l-4.6,4.6
						C1020.5,144.6,1019.8,144.6,1019.3,144.1z"/>
				</g>
			</g>
		</g>
		<g>
			<circle style="fill:#DBDBDB;" cx="1012.5" cy="147.9" r="1.6"/>
			<circle style="fill:#DBDBDB;" cx="1012.5" cy="147.9" r="1"/>
		</g>
	</g>
	<path style="fill:#DBDBDB;" d="M1067.3,199.7c45.7-14.7,100.7-40.3,121-40.3c13.8,0,18.5,4.7,28.7,4.7c17.3,0,53-30.3,80.7-30.3
		c26.3,0,103.3,50.2,195,65.7L1067.3,199.7z"/>
	<g>
		<path style="fill:#8C6A62;" d="M900,199.7c233.3-6.3,370-42,505.9-42c191.3,0,347.7,26.2,518.4,42H900z"/>
		<g style="opacity:0.3;">
			<path style="fill:#AF8F8B;" d="M1208.9,173.9c-25.9,7.9-63.6,19.6-73.7,25.7h44.3c20.1-9.7,52.9-23.1,83.1-32.1
				C1245.3,169.5,1227.4,171.7,1208.9,173.9z"/>
			<path style="fill:#AF8F8B;" d="M1302.6,163.3c-23.6,8.9-53.7,22.3-83.4,36.4h45.8c24.1-12.5,55.5-28.8,84.8-40.2
				C1334.3,160.5,1318.6,161.8,1302.6,163.3z"/>
			<path style="fill:#AF8F8B;" d="M1434.7,157.9c-9.5-0.1-19.1-0.2-28.8-0.2c-3.2,0-6.3,0-9.5,0.1c-0.1,0.1-0.1,0.1-0.2,0.2
				c-24.8,8.7-56.7,25.7-82,41.7h53.6c0.2-0.2,0.5-0.4,0.7-0.6C1382.6,187.5,1415.4,166.9,1434.7,157.9z"/>
			<path style="fill:#AF8F8B;" d="M1523.4,160.9c-14.3-0.8-28.8-1.4-43.4-1.9c-22.4,10.8-44.6,25.4-63.8,40.7h43.6
				c0.2-0.2,0.5-0.4,0.7-0.6C1473.2,188.6,1503.2,170.9,1523.4,160.9z"/>
		</g>
	</g>
	<g>
		<path style="fill:#7A5247;" d="M400,199.7c178.3-11,312-42,464-42c195.2,0,270.5,34.9,442,42H400z"/>
		<g style="opacity:0.3;">
			<path style="fill:#9B7067;" d="M1107.2,199.7h54.3c-13.1-8-32.1-15.2-52.4-21.4c-32.4-4.9-64.9-9.7-101.2-13.4
				C1041.4,173.6,1084.1,188.6,1107.2,199.7z"/>
			<path style="fill:#9B7067;" d="M788.5,160.1c-12.5,0.8-24.9,1.7-37.3,2.7c18.8,8.9,46.8,25.7,60.5,36.9h52.8
				c-0.3-0.2-0.5-0.5-0.8-0.7C842.1,180.7,813.3,168.2,788.5,160.1z"/>
			<path style="fill:#9B7067;" d="M862.1,157.7c-13.7,0-27.2,0.3-40.6,0.8c0.4,0.2,0.9,0.4,1.4,0.6c18.4,7.7,58.2,27.6,73.3,40.1
				c0.2,0.2,0.5,0.4,0.7,0.6h58.6c-25.5-16.2-65.5-34-92.8-42C862.5,157.7,862.3,157.7,862.1,157.7z"/>
		</g>
		<g>
			<defs>
				<path id="SVGID_5_" d="M400,199.7c178.3-11,312-42,464-42c195.2,0,270.5,34.9,442,42H400z"/>
			</defs>
			<clipPath id="SVGID_6_">
				<use xlink:href="#SVGID_5_"  style="overflow:visible;"/>
			</clipPath>
			<g style="clip-path:url(#SVGID_6_);">
				<path style="fill:#BFBFBF;" d="M992.8,198.7c-25.8-17-61.6-32.1-96.4-40.8c5.7-1.4,11.8-2.1,17.6-2.1c8.5,0,16.3,1.6,22.6,4.6
					l0.1,0l0.1,0c22.6,5,81.4,17.9,125.4,38.3H992.8z"/>
				<path style="fill:#CECECE;" d="M914,156.7c8.4,0,16,1.5,22.2,4.5l0.2,0.1l0.2,0c21.8,4.8,77.6,17.1,121,36.3h-64.5
					c-24.8-16.3-58.8-30.9-92.3-39.7C905.1,157.2,909.6,156.7,914,156.7 M914,154.7c-7.6,0-15.1,1.2-21.6,3.2
					c39.7,9.4,76.1,25.9,100.1,41.8h74.1c-42.3-20.5-99.1-33.5-129.6-40.3C930.1,156.1,922,154.7,914,154.7L914,154.7z"/>
			</g>
			<g style="clip-path:url(#SVGID_6_);">
				<g>
					<path style="fill:none;stroke:#DBDBDB;stroke-width:2;stroke-linecap:round;stroke-linejoin:round;" d="M917.7,159.6
						c0.6,0.1,1.3,0.3,2,0.4"/>
					
						<path style="fill:none;stroke:#DBDBDB;stroke-width:2;stroke-linecap:round;stroke-linejoin:round;stroke-dasharray:3.9492,5.9239;" d="
						M925.4,161.4c25,6.5,71.9,23.4,99.6,35.1"/>
					<path style="fill:none;stroke:#DBDBDB;stroke-width:2;stroke-linecap:round;stroke-linejoin:round;" d="M1027.7,197.7
						c0.6,0.3,1.2,0.5,1.8,0.8"/>
				</g>
			</g>
		</g>
	</g>
	<g>
		<g>
			<path style="fill:#E24217;" d="M1592.3,161.5l15-63.9c1-4.3,4.8-7.3,9.2-7.3l0,0c4.4,0,8.2,3,9.2,7.3l15,63.9H1592.3z"/>
		</g>
		<path style="fill:#F2582F;" d="M1638.5,151.7h-44c-1.2,0-2.2,1-2.2,2.2v7.6h48.3v-7.6C1640.6,152.7,1639.7,151.7,1638.5,151.7z"/>
		<path style="fill:#C92B00;" d="M1617.5,138.1h-2.1c-2.3,0-4.2,1.9-4.2,4.2v9.6h10.5v-9.6C1621.7,139.9,1619.8,138.1,1617.5,138.1z
			"/>
		<g>
			<path style="fill:#AD3020;" d="M1613.7,144.5c0-2.9,2.3-5.2,5.2-5.2c0.3,0,0.7,0,1,0.1c-0.9-0.8-2.1-1.3-3.5-1.3
				c-2.9,0-5.2,2.3-5.2,5.2v8.5h2.5V144.5z"/>
		</g>
		<path style="fill:#F2582F;" d="M1625.3,103.5h-17.7c-1.2,0-2.1-0.9-2.1-2.1v-1c0-1,0.8-1.9,1.9-1.9h18.2c1,0,1.9,0.8,1.9,1.9v1
			C1627.4,102.5,1626.4,103.5,1625.3,103.5z"/>
		<g>
			<path style="fill:#C92B00;" d="M1610.3,121.1h-5.1c-0.5,0-1-0.4-1-1V118c0-0.5,0.4-1,1-1h5.1c0.5,0,1,0.4,1,1v2.1
				C1611.3,120.7,1610.8,121.1,1610.3,121.1z"/>
			<path style="fill:#C92B00;" d="M1620.3,121.1h-5.1c-0.5,0-1-0.4-1-1V118c0-0.5,0.4-1,1-1h5.1c0.5,0,1,0.4,1,1v2.1
				C1621.3,120.7,1620.8,121.1,1620.3,121.1z"/>
			<path style="fill:#C92B00;" d="M1615.3,133.6h-5.1c-0.5,0-1-0.4-1-1v-2.1c0-0.5,0.4-1,1-1h5.1c0.5,0,1,0.4,1,1v2.1
				C1616.3,133.2,1615.8,133.6,1615.3,133.6z"/>
			<path style="fill:#C92B00;" d="M1625.3,127.3h-5.1c-0.5,0-1-0.4-1-1v-2.1c0-0.5,0.4-1,1-1h5.1c0.5,0,1,0.4,1,1v2.1
				C1626.3,126.9,1625.8,127.3,1625.3,127.3z"/>
			<path style="fill:#C92B00;" d="M1615.3,114.8h-5.1c-0.5,0-1-0.4-1-1v-2.1c0-0.5,0.4-1,1-1h5.1c0.5,0,1,0.4,1,1v2.1
				C1616.3,114.4,1615.8,114.8,1615.3,114.8z"/>
			<path style="fill:#C92B00;" d="M1625.3,114.8h-5.1c-0.5,0-1-0.4-1-1v-2.1c0-0.5,0.4-1,1-1h5.1c0.5,0,1,0.4,1,1v2.1
				C1626.3,114.4,1625.8,114.8,1625.3,114.8z"/>
		</g>
		<g>
			<g>
				<g>
					<path style="fill:#FCD001;" d="M1584.7,68.7l-0.5,0.5c-0.6,0.6-0.6,1.5,0,2l30,30c0.6,0.6,1.5,0.6,2,0l0.5-0.5
						c0.6-0.6,0.6-1.5,0-2l-30-30C1586.1,68.2,1585.2,68.2,1584.7,68.7z"/>
					<path style="fill:#FCD001;" d="M1607.3,80.8l-5.5,5.5L1584.4,69l5.5-5.5c0.6-0.6,1.5-0.6,2.1,0l15.2,15.2
						C1607.9,79.3,1607.9,80.2,1607.3,80.8z"/>
				</g>
				<g>
					<path style="fill:#FCD001;" d="M1648.2,133.3l0.5-0.5c0.6-0.6,0.6-1.5,0-2l-30-30c-0.6-0.6-1.5-0.6-2,0l-0.5,0.5
						c-0.6,0.6-0.6,1.5,0,2l30,30C1646.8,133.8,1647.7,133.8,1648.2,133.3z"/>
					<path style="fill:#FCD001;" d="M1625.6,121.2l5.5-5.5l17.3,17.3l-5.5,5.5c-0.6,0.6-1.5,0.6-2.1,0l-15.2-15.2
						C1625,122.7,1625,121.8,1625.6,121.2z"/>
				</g>
			</g>
			<g>
				<g>
					<path style="fill:#FCD001;" d="M1584.2,132.8l0.5,0.5c0.6,0.6,1.5,0.6,2,0l30-30c0.6-0.6,0.6-1.5,0-2l-0.5-0.5
						c-0.6-0.6-1.5-0.6-2,0l-30,30C1583.6,131.4,1583.6,132.3,1584.2,132.8z"/>
					<path style="fill:#FCD001;" d="M1596.2,110.2l5.5,5.5l-17.3,17.3l-5.5-5.5c-0.6-0.6-0.6-1.5,0-2.1l15.2-15.2
						C1594.7,109.6,1595.7,109.6,1596.2,110.2z"/>
				</g>
				<g>
					<path style="fill:#FCD001;" d="M1648.7,69.2l-0.5-0.5c-0.6-0.6-1.5-0.6-2,0l-30,30c-0.6,0.6-0.6,1.5,0,2l0.5,0.5
						c0.6,0.6,1.5,0.6,2,0l30-30C1649.3,70.7,1649.3,69.8,1648.7,69.2z"/>
					<path style="fill:#FCD001;" d="M1636.7,91.8l-5.5-5.5l17.3-17.3l5.5,5.5c0.6,0.6,0.6,1.5,0,2.1l-15.2,15.2
						C1638.2,92.4,1637.2,92.4,1636.7,91.8z"/>
				</g>
			</g>
		</g>
		<g>
			<circle style="fill:#FFFFFF;" cx="1616.4" cy="101" r="4.6"/>
			<circle style="fill:#2EAAEF;" cx="1616.4" cy="101" r="2.8"/>
		</g>
	</g>
	<g>
		<g>
			<path style="fill:#E24217;" d="M1713.3,159.7l11.2-48c0.8-3.2,3.6-5.5,6.9-5.5l0,0c3.3,0,6.2,2.3,6.9,5.5l11.2,48H1713.3z"/>
		</g>
		<path style="fill:#F2582F;" d="M1747.4,152.4h-31.9c-1.2,0-2.2,1-2.2,2.2v5.2h36.2v-5.2C1749.6,153.4,1748.6,152.4,1747.4,152.4z"
			/>
		<path style="fill:#C92B00;" d="M1732.3,142.1h-1.6c-1.7,0-3.1,1.4-3.1,3.1v7.2h7.9v-7.2C1735.4,143.5,1734,142.1,1732.3,142.1z"/>
		<g>
			<path style="fill:#AD3020;" d="M1729.4,147c0-2.2,1.8-3.9,3.9-3.9c0.3,0,0.5,0,0.7,0.1c-0.7-0.6-1.6-1-2.6-1
				c-2.2,0-3.9,1.8-3.9,3.9v6.4h1.9V147z"/>
		</g>
		<path style="fill:#F2582F;" d="M1738.1,116.2h-13.3c-0.9,0-1.6-0.7-1.6-1.6v-0.7c0-0.8,0.6-1.4,1.4-1.4h13.6
			c0.8,0,1.4,0.6,1.4,1.4v0.7C1739.7,115.5,1738.9,116.2,1738.1,116.2z"/>
		<g>
			<path style="fill:#C92B00;" d="M1726.6,129.4h-3.3c-0.5,0-1-0.4-1-1v-1.1c0-0.5,0.4-1,1-1h3.3c0.5,0,1,0.4,1,1v1.1
				C1727.6,129,1727.1,129.4,1726.6,129.4z"/>
			<path style="fill:#C92B00;" d="M1734.1,129.4h-3.3c-0.5,0-1-0.4-1-1v-1.1c0-0.5,0.4-1,1-1h3.3c0.5,0,1,0.4,1,1v1.1
				C1735.1,129,1734.6,129.4,1734.1,129.4z"/>
			<path style="fill:#C92B00;" d="M1730.4,138.8h-3.3c-0.5,0-1-0.4-1-1v-1.1c0-0.5,0.4-1,1-1h3.3c0.5,0,1,0.4,1,1v1.1
				C1731.3,138.3,1730.9,138.8,1730.4,138.8z"/>
			<path style="fill:#C92B00;" d="M1737.9,134.1h-3.3c-0.5,0-1-0.4-1-1V132c0-0.5,0.4-1,1-1h3.3c0.5,0,1,0.4,1,1v1.1
				C1738.8,133.7,1738.4,134.1,1737.9,134.1z"/>
			<path style="fill:#C92B00;" d="M1730.4,124.7h-3.3c-0.5,0-1-0.4-1-1v-1.1c0-0.5,0.4-1,1-1h3.3c0.5,0,1,0.4,1,1v1.1
				C1731.3,124.3,1730.9,124.7,1730.4,124.7z"/>
			<path style="fill:#C92B00;" d="M1737.9,124.7h-3.3c-0.5,0-1-0.4-1-1v-1.1c0-0.5,0.4-1,1-1h3.3c0.5,0,1,0.4,1,1v1.1
				C1738.8,124.3,1738.4,124.7,1737.9,124.7z"/>
		</g>
		<g>
			<g>
				<g>
					<path style="fill:#FCD001;" d="M1707.6,90.1l-0.4,0.4c-0.4,0.4-0.4,1.1,0,1.5l22.5,22.5c0.4,0.4,1.1,0.4,1.5,0l0.4-0.4
						c0.4-0.4,0.4-1.1,0-1.5l-22.5-22.5C1708.7,89.7,1708,89.7,1707.6,90.1z"/>
					<path style="fill:#FCD001;" d="M1724.3,99.5l-3.9,3.9l-13-13l3.9-3.9c0.6-0.6,1.5-0.6,2.1,0l10.9,10.9
						C1724.9,97.9,1724.9,98.9,1724.3,99.5z"/>
				</g>
				<g>
					<path style="fill:#FCD001;" d="M1755.3,138.6l0.4-0.4c0.4-0.4,0.4-1.1,0-1.5l-22.5-22.5c-0.4-0.4-1.1-0.4-1.5,0l-0.4,0.4
						c-0.4,0.4-0.4,1.1,0,1.5l22.5,22.5C1754.2,139,1754.9,139,1755.3,138.6z"/>
					<path style="fill:#FCD001;" d="M1738.6,129.2l3.9-3.9l13,13l-3.9,3.9c-0.6,0.6-1.5,0.6-2.1,0l-10.9-10.9
						C1738,130.8,1738,129.8,1738.6,129.2z"/>
				</g>
			</g>
			<g>
				<g>
					<path style="fill:#FCD001;" d="M1707.2,138.2l0.4,0.4c0.4,0.4,1.1,0.4,1.5,0l22.5-22.5c0.4-0.4,0.4-1.1,0-1.5l-0.4-0.4
						c-0.4-0.4-1.1-0.4-1.5,0l-22.5,22.5C1706.8,137.1,1706.8,137.8,1707.2,138.2z"/>
					<path style="fill:#FCD001;" d="M1716.6,121.5l3.9,3.9l-13,13l-3.9-3.9c-0.6-0.6-0.6-1.5,0-2.1l10.9-10.9
						C1715,120.9,1716,120.9,1716.6,121.5z"/>
				</g>
				<g>
					<path style="fill:#FCD001;" d="M1755.7,90.5l-0.4-0.4c-0.4-0.4-1.1-0.4-1.5,0l-22.5,22.5c-0.4,0.4-0.4,1.1,0,1.5l0.4,0.4
						c0.4,0.4,1.1,0.4,1.5,0l22.5-22.5C1756.1,91.6,1756.1,90.9,1755.7,90.5z"/>
					<path style="fill:#FCD001;" d="M1746.3,107.2l-3.9-3.9l13-13l3.9,3.9c0.6,0.6,0.6,1.5,0,2.1l-10.9,10.9
						C1747.9,107.8,1746.9,107.8,1746.3,107.2z"/>
				</g>
			</g>
		</g>
		<g>
			<circle style="fill:#FFFFFF;" cx="1731.4" cy="114.3" r="3.4"/>
			<circle style="fill:#2EAAEF;" cx="1731.4" cy="114.3" r="2.1"/>
		</g>
	</g>
	<path style="fill:#F78D1F;" d="M1061,199.7c228-11,454-43,629-43c196,0,482,39,572,43H1061z"/>
	<path style="fill:#FCD001;" d="M0,199.7c151.6-21,376.6-42,496.6-42c218.4,0,485,35,711,42.3L0,199.7z"/>
	<path style="fill:#FCD001;" d="M1568.5,199.7c106.5-10,319.9-31.7,407.9-31.7c81.7,0,221.2,15.8,303.7,31.7H1568.5z"/>
	<path style="opacity:0.8;fill:#FFED94;" d="M617,182.7c-35.9,8-104.7,15-135,17.1l202.5,0.1c43-7.7,51.5-19.7,36.5-25.2
		c-23.4-8.6-60.5-11.8-87-13.2c-23.4-1.2-46.6-2.1-69.3-2.7C606.7,164.7,654.3,174.3,617,182.7z"/>
	<path style="opacity:0.6;fill:#F7C232;" d="M1573.2,160.4c-78.9,8.9-148.3,27.8-182.9,38.9l-76.1,0.3c0,0,124.2-30.3,191.6-34.8
		C1573.2,160.4,1573.2,160.4,1573.2,160.4z"/>
	<g>
		<polygon style="fill:#EA711F;" points="1691.6,163.1 1663.4,165.9 1680.6,167.2 1706.9,164.3 		"/>
		<polygon style="fill:#EA711F;" points="1692.6,163.6 1668.8,165.7 1629.1,176.2 1662.1,176.9 1693,167.5 		"/>
		<polygon style="fill:#EA711F;" points="1692.3,163.6 1693,167.5 1706,168.1 1706.5,164.4 		"/>
		<polygon style="fill:#EA711F;" points="1693,167.5 1706,168.1 1681.5,176.1 1662.1,176.9 		"/>
		<g>
			<path style="fill:#EA711F;" d="M1669.1,169.1c-0.4,0.1-1.1,0.2-1.6,0.2l-2.3-0.1c-0.4,0-0.5-0.1,0-0.3l4.5-1.2
				c0.4-0.1,1.1-0.2,1.6-0.2l2,0.1c0.4,0,0.5,0.2,0,0.3L1669.1,169.1z"/>
		</g>
		<g>
			<path style="fill:#EA711F;" d="M1693.6,170.6c-0.4,0.1-0.4,0.3,0,0.3l0.4,0c0.4,0,1.1-0.1,1.6-0.2l2.8-0.9c0.4-0.1,0.4-0.3,0-0.3
				l-0.3,0c-0.4,0-1.1,0.1-1.6,0.2L1693.6,170.6z"/>
		</g>
		<g>
			<path style="fill:#EA711F;" d="M1685.3,173.3c-0.4,0.1-0.4,0.2,0,0.2l0.6,0c0.4,0,1.1-0.1,1.6-0.2l3.2-1c0.4-0.1,0.4-0.2,0-0.3
				l-0.5,0c-0.4,0-1.1,0.1-1.6,0.2L1685.3,173.3z"/>
		</g>
		<g>
			<path style="fill:#EA711F;" d="M1688.3,170.5c-0.4,0.1-0.4,0.2,0,0.3l0.5,0c0.4,0,1.1-0.1,1.6-0.2l3.1-1c0.4-0.1,0.4-0.3,0-0.3
				l-0.4,0c-0.4,0-1.1,0.1-1.6,0.2L1688.3,170.5z"/>
		</g>
		<g>
			<path style="fill:#EA711F;" d="M1679.6,173.2c-0.4,0.1-0.4,0.2,0,0.2l0.7,0c0.4,0,1.1-0.1,1.6-0.2l3.5-1.1c0.4-0.1,0.4-0.2,0-0.2
				l-0.6,0c-0.4,0-1.1,0.1-1.6,0.2L1679.6,173.2z"/>
		</g>
		<g>
			<path style="fill:#EA711F;" d="M1658.6,172.1c-0.4,0.1-1.1,0.2-1.6,0.2l-2.8-0.1c-0.4,0-0.5-0.1,0-0.2l5.1-1.4
				c0.4-0.1,1.1-0.2,1.6-0.2l2.6,0.1c0.4,0,0.5,0.1,0,0.2L1658.6,172.1z"/>
		</g>
		<g>
			<path style="fill:#EA711F;" d="M1678.3,169.7c-0.4,0.1-1.1,0.2-1.6,0.2l-1.8-0.1c-0.4,0-0.5-0.1,0-0.3l4-1.1
				c0.4-0.1,1.1-0.2,1.6-0.2l1.6,0.1c0.4,0,0.5,0.2,0,0.3L1678.3,169.7z"/>
		</g>
		<g>
			<path style="fill:#EA711F;" d="M1668.8,172.5c-0.4,0.1-1.1,0.2-1.6,0.2l-2.3-0.1c-0.4,0-0.5-0.1,0-0.2l4.4-1.3
				c0.4-0.1,1.1-0.2,1.6-0.2l2.1,0.1c0.4,0,0.5,0.1,0,0.3L1668.8,172.5z"/>
		</g>
		<polygon style="fill:#EA711F;" points="1691.6,163.1 1691.5,167.9 1707.3,168.5 1706.9,164.3 		"/>
		<g>
			<defs>
				<polygon id="SVGID_7_" points="1692.6,163.6 1668.8,165.7 1628.5,176.3 1661.7,177 1693,167.5 				"/>
			</defs>
			<use xlink:href="#SVGID_7_"  style="overflow:visible;fill:#EA711F;"/>
			<clipPath id="SVGID_8_">
				<use xlink:href="#SVGID_7_"  style="overflow:visible;"/>
			</clipPath>
			<g style="clip-path:url(#SVGID_8_);">
				<path style="fill:#EA711F;" d="M1658.6,173.3l-0.5,0c-1.6-0.1-4,0.2-5.4,0.6l-9.4,2.6l6.7,0.1l8.9-2.6
					C1660.3,173.7,1660.2,173.3,1658.6,173.3z"/>
				<path style="fill:#EA711F;" d="M1657.5,173.7l0.5,0c0.7,0,1.1,0.1,1.2,0.2c1-0.3,0.8-0.7-0.6-0.7l-0.5,0c-1.6-0.1-4,0.2-5.4,0.6
					l-9.4,2.6l1,0l7.8-2.2C1653.5,173.9,1655.9,173.7,1657.5,173.7z"/>
			</g>
		</g>
		<g>
			<polygon style="fill:#EA711F;" points="1689.7,168.2 1689.6,163.6 1663.4,165.9 1663.1,165.5 1691.7,163.1 1691.7,167.9 			"/>
		</g>
		<polygon style="fill:#EA711F;" points="1689.7,168.2 1706.4,168.8 1707.3,168.5 1691.7,167.9 		"/>
	</g>
	<g>
		<polygon style="fill:#C92B00;" points="1640.2,127.7 1622.7,143.9 1644,144.5 1665.1,126.8 		"/>
		<polygon style="fill:#F4F4F4;" points="1643.5,129.1 1626.7,142.1 1626.7,177.3 1660.2,179.2 1660.2,142.9 		"/>
		<polygon style="fill:#664820;" points="1643.1,129.1 1660.2,142.9 1681.4,141.7 1664.7,127.1 		"/>
		<polygon style="fill:#BFBFBF;" points="1660.2,142.9 1681.4,141.7 1681.4,176.1 1660.2,179.2 		"/>
		<g>
			<path style="fill:#61BEF2;" d="M1639.3,153.1c0,0.4-0.4,0.8-0.8,0.8l-3-0.1c-0.4,0-0.8-0.4-0.8-0.8v-4.7c0-0.4,0.4-0.8,0.8-0.8
				l3,0.1c0.4,0,0.8,0.4,0.8,0.8V153.1z"/>
		</g>
		<g>
			<path style="fill:#127FD2;" d="M1674.6,154.6c0,0.4,0.4,0.8,0.8,0.8l1.4-0.1c0.4,0,0.8-0.4,0.8-0.8v-4.7c0-0.4-0.4-0.8-0.8-0.8
				l-1.4,0.1c-0.4,0-0.8,0.4-0.8,0.8V154.6z"/>
		</g>
		<g>
			<path style="fill:#127FD2;" d="M1674.6,165.5c0,0.4,0.4,0.8,0.8,0.8l1.4-0.1c0.4,0,0.8-0.4,0.8-0.8v-4.7c0-0.4-0.4-0.8-0.8-0.8
				l-1.4,0.1c-0.4,0-0.8,0.4-0.8,0.8V165.5z"/>
		</g>
		<g>
			<path style="fill:#127FD2;" d="M1666.8,154.8c0,0.4,0.4,0.8,0.8,0.8l1.4-0.1c0.4,0,0.8-0.4,0.8-0.8V150c0-0.4-0.4-0.8-0.8-0.8
				l-1.4,0.1c-0.4,0-0.8,0.4-0.8,0.8V154.8z"/>
		</g>
		<g>
			<path style="fill:#127FD2;" d="M1666.8,165.7c0,0.4,0.4,0.8,0.8,0.8l1.4-0.1c0.4,0,0.8-0.4,0.8-0.8v-4.7c0-0.4-0.4-0.8-0.8-0.8
				l-1.4,0.1c-0.4,0-0.8,0.4-0.8,0.8V165.7z"/>
		</g>
		<g>
			<path style="fill:#61BEF2;" d="M1639.3,163.6c0,0.4-0.4,0.8-0.8,0.8l-3,0c-0.4,0-0.8-0.4-0.8-0.8v-4.7c0-0.4,0.4-0.8,0.8-0.8l3,0
				c0.4,0,0.8,0.4,0.8,0.8V163.6z"/>
		</g>
		<g>
			<path style="fill:#61BEF2;" d="M1651.4,153.7c0,0.4-0.4,0.8-0.8,0.8l-3-0.1c-0.4,0-0.8-0.4-0.8-0.8v-4.7c0-0.4,0.4-0.8,0.8-0.8
				l3,0.1c0.4,0,0.8,0.4,0.8,0.8V153.7z"/>
		</g>
		<g>
			<path style="fill:#61BEF2;" d="M1651.4,164.2c0,0.4-0.4,0.8-0.8,0.8l-3,0c-0.4,0-0.8-0.4-0.8-0.8v-4.7c0-0.4,0.4-0.8,0.8-0.8l3,0
				c0.4,0,0.8,0.4,0.8,0.8V164.2z"/>
		</g>
		<polygon style="fill:#E24217;" points="1640.2,127.7 1659.8,144.5 1685.5,143 1665.1,126.8 		"/>
		<g>
			<defs>
				<polygon id="SVGID_9_" points="1643.5,129.1 1626.7,142.1 1626.7,177.7 1660.2,179.6 1660.2,142.9 				"/>
			</defs>
			<clipPath id="SVGID_10_">
				<use xlink:href="#SVGID_9_"  style="overflow:visible;"/>
			</clipPath>
			<g style="clip-path:url(#SVGID_10_);">
				<path style="fill:#E24217;" d="M1643.5,167.5l-0.6,0c-1.7-0.1-3.1,0.9-3.1,2.2v8.4l6.9,0.4v-8.5
					C1646.6,168.6,1645.2,167.5,1643.5,167.5z"/>
				<path style="fill:#C92B00;" d="M1643.9,168.9l0.6,0c0.8,0,1.6,0.3,2.1,0.7c-0.2-1.2-1.5-2.1-3.1-2.2l-0.6,0
					c-1.7-0.1-3.1,0.9-3.1,2.2v8.4l1,0.1v-6.9C1640.7,169.8,1642.1,168.8,1643.9,168.9z"/>
			</g>
		</g>
		<g>
			<polygon style="fill:#F2582F;" points="1658.7,146 1640.2,130.2 1622.7,143.9 1621,142.7 1640.3,127.6 1660,144.4 			"/>
		</g>
		<polygon style="fill:#C92B00;" points="1658.7,146 1685.5,144.5 1685.5,143 1660,144.4 		"/>
	</g>
	<g>
		
			<line style="fill:none;stroke:#661D0E;stroke-width:2;stroke-linecap:round;stroke-linejoin:round;stroke-miterlimit:10;" x1="1672" y1="180.2" x2="1697.1" y2="176.2"/>
		
			<line style="fill:none;stroke:#661D0E;stroke-width:2;stroke-linecap:round;stroke-linejoin:round;stroke-miterlimit:10;" x1="1675" y1="176.9" x2="1675" y2="182.9"/>
		
			<line style="fill:none;stroke:#661D0E;stroke-width:2;stroke-linecap:round;stroke-linejoin:round;stroke-miterlimit:10;" x1="1679.8" y1="176.1" x2="1679.8" y2="182.1"/>
		
			<line style="fill:none;stroke:#661D0E;stroke-width:2;stroke-linecap:round;stroke-linejoin:round;stroke-miterlimit:10;" x1="1684.5" y1="175.3" x2="1684.5" y2="181.3"/>
		
			<line style="fill:none;stroke:#661D0E;stroke-width:2;stroke-linecap:round;stroke-linejoin:round;stroke-miterlimit:10;" x1="1689.2" y1="174.5" x2="1689.2" y2="180.5"/>
		
			<line style="fill:none;stroke:#661D0E;stroke-width:2;stroke-linecap:round;stroke-linejoin:round;stroke-miterlimit:10;" x1="1694" y1="173.7" x2="1694" y2="179.7"/>
	</g>
	<g>
		<ellipse style="fill:#898989;" cx="932.7" cy="162" rx="10.8" ry="1.8"/>
		<g>
			<circle style="fill:#661D0E;" cx="938.3" cy="161.1" r="1.7"/>
			<circle style="fill:#661D0E;" cx="931.1" cy="161.1" r="1.7"/>
			<circle style="fill:#661D0E;" cx="924.7" cy="159.8" r="1.4"/>
			<path style="fill:#C92B00;" d="M941.1,161.6h-12v-14.5h12c0.7,0,1.3,0.6,1.3,1.3v11.9C942.4,161,941.8,161.6,941.1,161.6z"/>
			<path style="fill:#E24217;" d="M929.1,147.1l-6.2,1.4c-0.6,0.1-1,0.7-1,1.2v8.3c0,0.5,0.3,1,0.8,1.2l6.3,2.3V147.1z"/>
			<path style="fill:#61BEF2;" d="M940.3,154.9h-9.2v-4.5c0-0.7,0.6-1.3,1.3-1.3h6.7c0.7,0,1.3,0.6,1.3,1.3V154.9z"/>
			<path style="fill:#2EAAEF;" d="M939.9,149.5l-8.8,5.4h9.2v-4.5C940.3,150,940.2,149.7,939.9,149.5z"/>
			<path style="fill:#BCE8F7;" d="M927.5,153.6v-3.1c0-0.5-0.5-0.9-1-0.8l-3,0.5c-0.4,0.1-0.6,0.4-0.6,0.7v2.6
				c0,0.4,0.3,0.7,0.6,0.7l3,0.3C927.1,154.5,927.5,154.1,927.5,153.6z"/>
			<path style="fill:#61BEF2;" d="M927.1,149.7l-4,4.1c0.1,0.1,0.3,0.2,0.5,0.3l3,0.3c0.5,0.1,0.9-0.3,0.9-0.8v-3.1
				C927.5,150.1,927.4,149.9,927.1,149.7z"/>
			<rect x="924.5" y="149.7" style="fill:#E24217;" width="0.7" height="6.3"/>
			<path style="fill:#BFBFBF;" d="M938.1,159.5h-4.9c-0.4,0-0.8-0.4-0.8-0.8l0,0c0-0.4,0.4-0.8,0.8-0.8h4.9c0.4,0,0.8,0.4,0.8,0.8
				l0,0C939,159.2,938.6,159.5,938.1,159.5z"/>
		</g>
	</g>
	<ellipse style="fill:#F7C216;" cx="645.5" cy="181.8" rx="14.4" ry="3"/>
	<ellipse style="fill:#F7C216;" cx="690.5" cy="187.8" rx="14.4" ry="3"/>
	<path style="fill:none;" d="M961.3,21.3"/>
	<g>
		<g>
			<ellipse style="fill:#F7C216;" cx="509.7" cy="169.3" rx="8.3" ry="1.7"/>
			<ellipse style="fill:#F7C216;" cx="530.7" cy="164.4" rx="8.3" ry="1.7"/>
			<ellipse style="fill:#F7C216;" cx="554.6" cy="171.4" rx="8.3" ry="1.7"/>
			<g>
				<path style="fill:#F78D1F;" d="M529.8,148.9c-0.1-0.5-0.7-0.8-1.2-0.7c-0.5,0.1-0.8,0.7-0.7,1.2c1,3.4,2,10.8,1.8,13.8
					c0,0.5,0.4,1,0.9,1c0,0,0.1,0,0.1,0c0.5,0,0.9-0.4,1-0.9C531.9,160.1,530.9,152.5,529.8,148.9z"/>
				<path style="fill:#F78D1F;" d="M527.8,147.4c0.7-1.2-2.7-3.4-3.2-1.7C524.1,147.4,527,148.8,527.8,147.4z"/>
				<path style="fill:#F78D1F;" d="M524.7,155.9c-0.7-0.2-1.7-0.9-1.4-1.8c0.1-0.4,0.5-0.8,1-0.9c0.6-0.2,1.3-0.3,1.9-0.3
					c0.6,0.1,1.2,0.3,1.5,0.8C528.9,155.5,526.4,156.3,524.7,155.9z"/>
				<path style="fill:#F78D1F;" d="M525.7,151.4c-1.1,0.3-2.8-0.3-2.8-1.5c0-0.6,0.8-0.9,1.3-1c1-0.1,2.8,0.3,2.3,1.7
					C526.4,151.1,526.1,151.3,525.7,151.4z"/>
				<path style="fill:#F78D1F;" d="M528.1,158.8c0.2,0.3,0.3,0.7,0.2,1.1c-0.1,0.7-0.6,1.3-1.3,1.5c-1.3,0.5-2.8-0.2-3.8-1.1
					c-0.4-0.4-0.7-0.9-0.7-1.5C522.7,156.8,527,157.1,528.1,158.8z"/>
				<path style="fill:#F78D1F;" d="M529.9,147.7c-0.5-0.3-0.6-1.2-0.5-1.8c0.1-0.6,0.7-1.2,1.4-1.1c1.4,0.2,1.1,2.4,0.1,2.9
					C530.5,147.8,530.1,147.8,529.9,147.7z"/>
				<path style="fill:#F78D1F;" d="M531.4,149.1c0.1-0.1,0.1-0.3,0.2-0.4c0.6-0.8,2-0.8,2.5,0.1
					C535.3,150.9,530.4,151.3,531.4,149.1z"/>
				<path style="fill:#F78D1F;" d="M532.2,153.5c0.3-1.3,3.4-2.5,3.9-0.7c0.5,1.8-2.4,2.5-3.5,1.5
					C532.3,154.1,532.2,153.8,532.2,153.5z"/>
				<path style="fill:#F78D1F;" d="M536.9,159.3c-1.1,1.2-3.5,1.6-4.4,0c-0.9-1.7,1.3-3.1,2.9-3.1c1.7,0,2.6,1.6,1.7,2.9
					C537,159.1,537,159.2,536.9,159.3z"/>
			</g>
			<g>
				<path style="fill:#FFDF5A;" d="M553.8,152.4c-0.2-0.6-0.9-1-1.5-0.8c-0.6,0.2-1,0.9-0.8,1.5c1.2,4.2,2.5,13.5,2.2,17.2
					c-0.1,0.7,0.4,1.3,1.1,1.3c0,0,0.1,0,0.1,0c0.6,0,1.2-0.5,1.2-1.1C556.4,166.4,555,156.9,553.8,152.4z"/>
				<path style="fill:#FFDF5A;" d="M551.2,150.5c0.9-1.5-3.3-4.3-4-2.2C546.5,150.5,550.2,152.2,551.2,150.5z"/>
				<path style="fill:#FFDF5A;" d="M547.4,161.1c-0.9-0.2-2.1-1.1-1.7-2.2c0.2-0.5,0.7-0.9,1.2-1.2c0.7-0.3,1.7-0.4,2.4-0.3
					c0.7,0.1,1.5,0.4,1.9,1C552.6,160.6,549.5,161.7,547.4,161.1z"/>
				<path style="fill:#FFDF5A;" d="M548.5,155.6c-1.4,0.4-3.5-0.4-3.4-1.9c0.1-0.7,1-1.1,1.7-1.2c1.3-0.2,3.6,0.4,2.9,2.1
					C549.5,155.1,549.1,155.4,548.5,155.6z"/>
				<path style="fill:#FFDF5A;" d="M551.6,164.7c0.3,0.4,0.4,0.8,0.3,1.3c-0.1,0.8-0.8,1.6-1.6,1.9c-1.6,0.6-3.6-0.2-4.7-1.4
					c-0.5-0.5-0.9-1.2-0.9-1.9C544.9,162.2,550.2,162.6,551.6,164.7z"/>
				<path style="fill:#FFDF5A;" d="M553.9,150.9c-0.6-0.4-0.8-1.5-0.6-2.3c0.2-0.8,0.9-1.5,1.7-1.4c1.7,0.2,1.4,3,0.2,3.6
					C554.6,151,554.2,151,553.9,150.9z"/>
				<path style="fill:#FFDF5A;" d="M555.7,152.6c0.1-0.2,0.2-0.3,0.3-0.5c0.7-1,2.5-1,3.1,0.1C560.6,154.9,554.5,155.3,555.7,152.6z
					"/>
				<path style="fill:#FFDF5A;" d="M556.8,158.1c0.4-1.6,4.2-3.1,4.8-0.8c0.6,2.2-3,3.1-4.4,1.9
					C556.8,158.9,556.7,158.5,556.8,158.1z"/>
				<path style="fill:#FFDF5A;" d="M562.6,165.3c-1.4,1.5-4.4,2-5.6,0c-1.2-2.1,1.6-3.8,3.6-3.9c2.1,0,3.3,2,2.1,3.6
					C562.8,165.1,562.7,165.2,562.6,165.3z"/>
			</g>
			<g>
				<path style="fill:#FFDF5A;" d="M509.1,150.6c-0.2-0.6-0.9-1-1.5-0.8c-0.6,0.2-1,0.9-0.8,1.5c1.2,4.2,2.5,13.5,2.2,17.2
					c-0.1,0.7,0.4,1.3,1.1,1.3c0,0,0.1,0,0.1,0c0.6,0,1.2-0.5,1.2-1.1C511.8,164.6,510.4,155,509.1,150.6z"/>
				<path style="fill:#FFDF5A;" d="M506.6,148.7c0.9-1.5-3.3-4.3-4-2.2S505.6,150.4,506.6,148.7z"/>
				<path style="fill:#FFDF5A;" d="M502.7,159.3c-0.9-0.2-2.1-1.1-1.7-2.2c0.2-0.5,0.7-0.9,1.2-1.2c0.7-0.3,1.7-0.4,2.4-0.3
					c0.7,0.1,1.5,0.4,1.9,1C508,158.8,504.9,159.8,502.7,159.3z"/>
				<path style="fill:#FFDF5A;" d="M503.9,153.7c-1.4,0.4-3.5-0.4-3.4-1.9c0.1-0.7,1-1.1,1.7-1.2c1.3-0.2,3.6,0.4,2.9,2.1
					C504.9,153.2,504.4,153.6,503.9,153.7z"/>
				<path style="fill:#FFDF5A;" d="M506.9,162.9c0.3,0.4,0.4,0.8,0.3,1.3c-0.1,0.8-0.8,1.6-1.6,1.9c-1.6,0.6-3.6-0.2-4.7-1.4
					c-0.5-0.5-0.9-1.2-0.9-1.9C500.2,160.4,505.5,160.8,506.9,162.9z"/>
				<path style="fill:#FFDF5A;" d="M509.2,149c-0.6-0.4-0.8-1.5-0.6-2.3c0.2-0.8,0.9-1.5,1.7-1.4c1.7,0.2,1.4,3,0.2,3.6
					C509.9,149.2,509.5,149.2,509.2,149z"/>
				<path style="fill:#FFDF5A;" d="M511.1,150.8c0.1-0.2,0.2-0.3,0.3-0.5c0.7-1,2.5-1,3.1,0.1C515.9,153.1,509.9,153.5,511.1,150.8z
					"/>
				<path style="fill:#FFDF5A;" d="M512.1,156.3c0.4-1.6,4.2-3.1,4.8-0.8c0.6,2.2-3,3.1-4.4,1.9C512.2,157.1,512,156.7,512.1,156.3z
					"/>
				<path style="fill:#FFDF5A;" d="M518,163.5c-1.4,1.5-4.4,2-5.6,0c-1.2-2.1,1.6-3.8,3.6-3.9c2.1,0,3.3,2,2.1,3.6
					C518.1,163.3,518.1,163.4,518,163.5z"/>
			</g>
		</g>
		<g>
			<ellipse style="fill:#F7C216;" cx="468.8" cy="181.4" rx="9.6" ry="2"/>
			<ellipse style="fill:#F7C216;" cx="492.4" cy="176.4" rx="9.6" ry="2"/>
			<ellipse style="fill:#F7C216;" cx="508.2" cy="183.8" rx="9.6" ry="2"/>
			<g>
				<path style="fill:#EA711F;" d="M491,159c-0.2-0.6-0.8-0.9-1.4-0.8c-0.6,0.2-0.9,0.8-0.8,1.4c1.1,3.9,2.3,12.4,2.1,15.8
					c0,0.6,0.4,1.2,1,1.2c0,0,0.1,0,0.1,0c0.6,0,1.1-0.4,1.1-1C493.5,171.9,492.2,163.1,491,159z"/>
				<path style="fill:#EA711F;" d="M488.7,157.2c0.9-1.4-3.1-3.9-3.7-2C484.4,157.2,487.8,158.8,488.7,157.2z"/>
				<path style="fill:#EA711F;" d="M485.1,167c-0.9-0.2-1.9-1-1.6-2c0.2-0.5,0.6-0.9,1.1-1.1c0.7-0.3,1.5-0.4,2.2-0.3
					c0.7,0.1,1.4,0.4,1.7,1C490,166.6,487.1,167.5,485.1,167z"/>
				<path style="fill:#EA711F;" d="M486.2,161.9c-1.3,0.4-3.3-0.4-3.2-1.8c0-0.7,1-1,1.5-1.1c1.2-0.2,3.3,0.3,2.7,2
					C487.1,161.4,486.7,161.7,486.2,161.9z"/>
				<path style="fill:#EA711F;" d="M489,170.3c0.2,0.4,0.4,0.8,0.3,1.2c-0.1,0.8-0.7,1.4-1.5,1.7c-1.5,0.6-3.3-0.2-4.3-1.3
					c-0.5-0.5-0.8-1.1-0.8-1.7C482.8,168,487.7,168.4,489,170.3z"/>
				<path style="fill:#EA711F;" d="M491.1,157.5c-0.6-0.3-0.7-1.4-0.6-2.1c0.1-0.7,0.8-1.4,1.6-1.3c1.6,0.2,1.3,2.8,0.2,3.4
					C491.8,157.7,491.4,157.7,491.1,157.5z"/>
				<path style="fill:#EA711F;" d="M492.8,159.2c0.1-0.1,0.2-0.3,0.3-0.5c0.6-0.9,2.3-0.9,2.9,0.1
					C497.3,161.3,491.7,161.7,492.8,159.2z"/>
				<path style="fill:#EA711F;" d="M493.8,164.2c0.4-1.5,3.9-2.9,4.4-0.8c0.5,2.1-2.7,2.9-4,1.8C493.8,165,493.7,164.6,493.8,164.2z
					"/>
				<path style="fill:#EA711F;" d="M499.2,170.9c-1.3,1.4-4.1,1.9-5.1,0c-1.1-1.9,1.5-3.5,3.3-3.6c2,0,3,1.8,2,3.3
					C499.3,170.7,499.3,170.8,499.2,170.9z"/>
			</g>
			<g>
				<path style="fill:#F78D1F;" d="M507.1,162.4c-0.2-0.7-1-1.2-1.7-1c-0.7,0.2-1.2,1-1,1.7c1.4,4.8,2.9,15.5,2.6,19.8
					c-0.1,0.8,0.5,1.4,1.3,1.5c0,0,0.1,0,0.1,0c0.7,0,1.3-0.6,1.4-1.3C510.1,178.5,508.6,167.5,507.1,162.4z"/>
				<path style="fill:#F78D1F;" d="M504.2,160.2c1.1-1.8-3.8-4.9-4.6-2.5C498.8,160.1,503,162.2,504.2,160.2z"/>
				<path style="fill:#F78D1F;" d="M499.7,172.4c-1.1-0.3-2.4-1.2-2-2.5c0.2-0.6,0.8-1.1,1.4-1.3c0.8-0.3,1.9-0.5,2.8-0.4
					c0.8,0.1,1.7,0.5,2.2,1.2C505.7,171.9,502.2,173.1,499.7,172.4z"/>
				<path style="fill:#F78D1F;" d="M501.1,166c-1.6,0.5-4.1-0.4-4-2.2c0.1-0.8,1.2-1.3,1.9-1.4c1.4-0.2,4.1,0.4,3.4,2.4
					C502.1,165.4,501.7,165.8,501.1,166z"/>
				<path style="fill:#F78D1F;" d="M504.5,176.6c0.3,0.5,0.4,1,0.4,1.6c-0.2,1-0.9,1.8-1.8,2.2c-1.8,0.7-4.1-0.2-5.4-1.6
					c-0.6-0.6-1.1-1.3-1-2.2C496.8,173.7,502.9,174.2,504.5,176.6z"/>
				<path style="fill:#F78D1F;" d="M507.2,160.6c-0.7-0.4-0.9-1.7-0.7-2.6c0.2-0.9,1-1.8,1.9-1.7c1.9,0.3,1.6,3.5,0.2,4.2
					C508,160.8,507.5,160.8,507.2,160.6z"/>
				<path style="fill:#F78D1F;" d="M509.3,162.6c0.1-0.2,0.2-0.4,0.3-0.6c0.8-1.2,2.9-1.2,3.6,0.1
					C514.9,165.3,507.9,165.8,509.3,162.6z"/>
				<path style="fill:#F78D1F;" d="M510.5,169c0.4-1.8,4.9-3.6,5.6-0.9c0.7,2.6-3.4,3.6-5.1,2.2C510.6,169.9,510.4,169.4,510.5,169z
					"/>
				<path style="fill:#F78D1F;" d="M517.3,177.3c-1.6,1.8-5.1,2.4-6.4,0c-1.3-2.4,1.8-4.4,4.2-4.4c2.5,0,3.8,2.3,2.5,4.1
					C517.5,177.1,517.4,177.2,517.3,177.3z"/>
			</g>
			<g>
				<path style="fill:#F78D1F;" d="M467.2,160.3c-0.2-0.7-1-1.2-1.7-1c-0.7,0.2-1.2,1-1,1.7c1.4,4.8,2.9,15.5,2.6,19.8
					c-0.1,0.8,0.5,1.4,1.3,1.5c0,0,0.1,0,0.1,0c0.7,0,1.3-0.6,1.4-1.3C470.2,176.4,468.6,165.4,467.2,160.3z"/>
				<path style="fill:#F78D1F;" d="M464.2,158.1c1.1-1.8-3.8-4.9-4.6-2.5C458.9,158,463.1,160.1,464.2,158.1z"/>
				<path style="fill:#F78D1F;" d="M459.8,170.3c-1.1-0.3-2.4-1.2-2-2.5c0.2-0.6,0.8-1.1,1.4-1.3c0.8-0.3,1.9-0.5,2.8-0.4
					c0.8,0.1,1.7,0.5,2.2,1.2C465.8,169.8,462.3,171,459.8,170.3z"/>
				<path style="fill:#F78D1F;" d="M461.1,163.9c-1.6,0.5-4.1-0.4-4-2.2c0.1-0.8,1.2-1.3,1.9-1.4c1.4-0.2,4.1,0.4,3.4,2.4
					C462.2,163.3,461.7,163.7,461.1,163.9z"/>
				<path style="fill:#F78D1F;" d="M464.6,174.5c0.3,0.5,0.4,1,0.4,1.6c-0.2,1-0.9,1.8-1.8,2.2c-1.8,0.7-4.1-0.2-5.4-1.6
					c-0.6-0.6-1.1-1.3-1-2.2C456.9,171.6,463,172.1,464.6,174.5z"/>
				<path style="fill:#F78D1F;" d="M467.3,158.5c-0.7-0.4-0.9-1.7-0.7-2.6c0.2-0.9,1-1.8,1.9-1.7c1.9,0.3,1.6,3.5,0.2,4.2
					C468.1,158.7,467.6,158.7,467.3,158.5z"/>
				<path style="fill:#F78D1F;" d="M469.4,160.5c0.1-0.2,0.2-0.4,0.3-0.6c0.8-1.2,2.9-1.2,3.6,0.1C475,163.2,468,163.7,469.4,160.5z
					"/>
				<path style="fill:#F78D1F;" d="M470.6,166.9c0.4-1.8,4.9-3.6,5.6-0.9c0.7,2.6-3.4,3.6-5.1,2.2
					C470.7,167.8,470.5,167.3,470.6,166.9z"/>
				<path style="fill:#F78D1F;" d="M477.4,175.2c-1.6,1.8-5.1,2.4-6.4,0c-1.3-2.4,1.8-4.4,4.2-4.4c2.5,0,3.8,2.3,2.5,4.1
					C477.6,175,477.5,175.1,477.4,175.2z"/>
			</g>
		</g>
		<g>
			<ellipse style="fill:#F7C216;" cx="789.7" cy="186.2" rx="7.7" ry="1.6"/>
			<ellipse style="fill:#F7C216;" cx="820.5" cy="183.2" rx="7.7" ry="1.6"/>
			<ellipse style="fill:#F7C216;" cx="833.2" cy="189.2" rx="7.7" ry="1.6"/>
			<g>
				<path style="fill:#FFDF5A;" d="M819.4,169.3c-0.1-0.5-0.6-0.8-1.1-0.6c-0.5,0.1-0.8,0.6-0.6,1.1c0.9,3.1,1.9,9.9,1.6,12.7
					c0,0.5,0.3,0.9,0.8,1c0,0,0,0,0.1,0c0.5,0,0.9-0.4,0.9-0.8C821.4,179.6,820.4,172.6,819.4,169.3z"/>
				<path style="fill:#FFDF5A;" d="M817.6,167.9c0.7-1.1-2.4-3.1-2.9-1.6C814.1,167.8,816.8,169.1,817.6,167.9z"/>
				<path style="fill:#FFDF5A;" d="M814.7,175.7c-0.7-0.2-1.6-0.8-1.3-1.6c0.1-0.4,0.5-0.7,0.9-0.9c0.5-0.2,1.2-0.3,1.8-0.3
					c0.5,0.1,1.1,0.3,1.4,0.8C818.6,175.3,816.3,176.1,814.7,175.7z"/>
				<path style="fill:#FFDF5A;" d="M815.6,171.6c-1.1,0.3-2.6-0.3-2.5-1.4c0-0.5,0.8-0.8,1.2-0.9c0.9-0.1,2.6,0.3,2.1,1.6
					C816.3,171.2,816,171.5,815.6,171.6z"/>
				<path style="fill:#FFDF5A;" d="M817.8,178.3c0.2,0.3,0.3,0.6,0.2,1c-0.1,0.6-0.6,1.2-1.2,1.4c-1.2,0.5-2.6-0.2-3.5-1
					c-0.4-0.4-0.7-0.9-0.6-1.4C812.9,176.5,816.8,176.8,817.8,178.3z"/>
				<path style="fill:#FFDF5A;" d="M819.5,168.1c-0.5-0.3-0.6-1.1-0.5-1.7c0.1-0.6,0.7-1.1,1.2-1.1c1.2,0.2,1,2.2,0.1,2.7
					C820,168.3,819.7,168.3,819.5,168.1z"/>
				<path style="fill:#FFDF5A;" d="M820.9,169.4c0.1-0.1,0.1-0.2,0.2-0.4c0.5-0.8,1.8-0.8,2.3,0.1
					C824.4,171.1,820,171.4,820.9,169.4z"/>
				<path style="fill:#FFDF5A;" d="M821.6,173.5c0.3-1.2,3.1-2.3,3.6-0.6c0.4,1.6-2.2,2.3-3.2,1.4
					C821.7,174.1,821.6,173.8,821.6,173.5z"/>
				<path style="fill:#FFDF5A;" d="M826,178.8c-1,1.1-3.3,1.5-4.1,0c-0.9-1.6,1.2-2.8,2.7-2.8c1.6,0,2.4,1.4,1.6,2.7
					C826.1,178.7,826,178.7,826,178.8z"/>
			</g>
			<g>
				<path style="fill:#F78D1F;" d="M832.3,172c-0.2-0.6-0.8-0.9-1.4-0.8c-0.6,0.2-0.9,0.8-0.8,1.4c1.1,3.9,2.3,12.4,2.1,15.8
					c0,0.6,0.4,1.2,1,1.2c0,0,0.1,0,0.1,0c0.6,0,1.1-0.4,1.1-1C834.7,184.9,833.5,176.1,832.3,172z"/>
				<path style="fill:#F78D1F;" d="M829.9,170.3c0.9-1.4-3.1-3.9-3.7-2C825.6,170.2,829,171.8,829.9,170.3z"/>
				<path style="fill:#F78D1F;" d="M826.4,180c-0.9-0.2-1.9-1-1.6-2c0.2-0.5,0.6-0.9,1.1-1.1c0.7-0.3,1.5-0.4,2.2-0.3
					c0.7,0.1,1.4,0.4,1.7,1C831.2,179.6,828.3,180.5,826.4,180z"/>
				<path style="fill:#F78D1F;" d="M827.4,174.9c-1.3,0.4-3.3-0.4-3.2-1.8c0-0.7,1-1,1.5-1.1c1.2-0.2,3.3,0.3,2.7,2
					C828.3,174.4,827.9,174.8,827.4,174.9z"/>
				<path style="fill:#F78D1F;" d="M830.2,183.3c0.2,0.4,0.4,0.8,0.3,1.2c-0.1,0.8-0.7,1.4-1.5,1.7c-1.5,0.6-3.3-0.2-4.3-1.3
					c-0.5-0.5-0.8-1.1-0.8-1.7C824.1,181.1,829,181.4,830.2,183.3z"/>
				<path style="fill:#F78D1F;" d="M832.4,170.6c-0.6-0.3-0.7-1.4-0.6-2.1c0.1-0.7,0.8-1.4,1.6-1.3c1.6,0.2,1.3,2.8,0.2,3.4
					C833,170.7,832.6,170.7,832.4,170.6z"/>
				<path style="fill:#F78D1F;" d="M834.1,172.2c0.1-0.1,0.2-0.3,0.3-0.5c0.6-0.9,2.3-0.9,2.9,0.1
					C838.5,174.3,833,174.7,834.1,172.2z"/>
				<path style="fill:#F78D1F;" d="M835,177.3c0.4-1.5,3.9-2.9,4.4-0.8c0.5,2.1-2.7,2.9-4,1.8C835.1,178,835,177.6,835,177.3z"/>
				<path style="fill:#F78D1F;" d="M840.5,183.9c-1.3,1.4-4.1,1.9-5.1,0c-1.1-1.9,1.5-3.5,3.3-3.6c2,0,3,1.8,2,3.3
					C840.6,183.7,840.5,183.8,840.5,183.9z"/>
			</g>
			<g>
				<path style="fill:#FFDF5A;" d="M788.3,169.3c-0.2-0.6-0.8-0.9-1.4-0.8c-0.6,0.2-0.9,0.8-0.8,1.4c1.1,3.9,2.3,12.4,2.1,15.8
					c0,0.6,0.4,1.2,1,1.2c0,0,0.1,0,0.1,0c0.6,0,1.1-0.4,1.1-1C790.8,182.2,789.5,173.4,788.3,169.3z"/>
				<path style="fill:#FFDF5A;" d="M786,167.6c0.9-1.4-3.1-3.9-3.7-2C781.7,167.5,785.1,169.1,786,167.6z"/>
				<path style="fill:#FFDF5A;" d="M782.4,177.4c-0.9-0.2-1.9-1-1.6-2c0.2-0.5,0.6-0.9,1.1-1.1c0.7-0.3,1.5-0.4,2.2-0.3
					c0.7,0.1,1.4,0.4,1.7,1C787.3,176.9,784.4,177.9,782.4,177.4z"/>
				<path style="fill:#FFDF5A;" d="M783.5,172.2c-1.3,0.4-3.3-0.4-3.2-1.8c0-0.7,1-1,1.5-1.1c1.2-0.2,3.3,0.3,2.7,2
					C784.4,171.8,784,172.1,783.5,172.2z"/>
				<path style="fill:#FFDF5A;" d="M786.3,180.7c0.2,0.4,0.4,0.8,0.3,1.2c-0.1,0.8-0.7,1.4-1.5,1.7c-1.5,0.6-3.3-0.2-4.3-1.3
					c-0.5-0.5-0.8-1.1-0.8-1.7C780.1,178.4,785,178.8,786.3,180.7z"/>
				<path style="fill:#FFDF5A;" d="M788.4,167.9c-0.6-0.3-0.7-1.4-0.6-2.1c0.1-0.7,0.8-1.4,1.6-1.3c1.6,0.2,1.3,2.8,0.2,3.4
					C789.1,168.1,788.7,168,788.4,167.9z"/>
				<path style="fill:#FFDF5A;" d="M790.1,169.5c0.1-0.1,0.2-0.3,0.3-0.5c0.6-0.9,2.3-0.9,2.9,0.1C794.6,171.6,789,172,790.1,169.5z
					"/>
				<path style="fill:#FFDF5A;" d="M791.1,174.6c0.4-1.5,3.9-2.9,4.4-0.8c0.5,2.1-2.7,2.9-4,1.8C791.1,175.3,791,174.9,791.1,174.6z
					"/>
				<path style="fill:#FFDF5A;" d="M796.5,181.2c-1.3,1.4-4.1,1.9-5.1,0c-1.1-1.9,1.5-3.5,3.3-3.6c2,0,3,1.8,2,3.3
					C796.7,181.1,796.6,181.1,796.5,181.2z"/>
			</g>
		</g>
		<g>
			<ellipse style="opacity:0.6;fill:#EA711F;" cx="1555.9" cy="171.2" rx="6.2" ry="1.3"/>
			<g>
				<path style="fill:#FCD001;" d="M1556.5,160c0.1-0.4,0.5-0.6,0.9-0.5c0.4,0.1,0.6,0.5,0.5,0.9c-0.7,2.5-1.5,8-1.3,10.2
					c0,0.4-0.3,0.7-0.7,0.8c0,0,0,0-0.1,0c-0.4,0-0.7-0.3-0.7-0.7C1554.9,168.4,1555.7,162.7,1556.5,160z"/>
				<path style="fill:#FCD001;" d="M1558,158.9c-0.5-0.9,2-2.5,2.4-1.3C1560.7,158.9,1558.6,159.9,1558,158.9z"/>
				<path style="fill:#FCD001;" d="M1560.3,165.2c0.5-0.1,1.3-0.6,1-1.3c-0.1-0.3-0.4-0.6-0.7-0.7c-0.4-0.2-1-0.3-1.4-0.2
					c-0.4,0-0.9,0.3-1.1,0.6C1557.2,164.9,1559,165.5,1560.3,165.2z"/>
				<path style="fill:#FCD001;" d="M1559.6,161.9c0.8,0.3,2.1-0.2,2-1.1c0-0.4-0.6-0.7-1-0.7c-0.7-0.1-2.1,0.2-1.7,1.3
					C1559,161.6,1559.3,161.8,1559.6,161.9z"/>
				<path style="fill:#FCD001;" d="M1557.8,167.3c-0.2,0.2-0.2,0.5-0.2,0.8c0.1,0.5,0.5,0.9,0.9,1.1c0.9,0.4,2.1-0.1,2.8-0.8
					c0.3-0.3,0.5-0.7,0.5-1.1C1561.7,165.9,1558.6,166.1,1557.8,167.3z"/>
				<path style="fill:#FCD001;" d="M1556.4,159.1c0.4-0.2,0.5-0.9,0.4-1.4c-0.1-0.5-0.5-0.9-1-0.8c-1,0.1-0.8,1.8-0.1,2.2
					C1556,159.2,1556.2,159.2,1556.4,159.1z"/>
				<path style="fill:#FCD001;" d="M1555.3,160.2c0-0.1-0.1-0.2-0.2-0.3c-0.4-0.6-1.5-0.6-1.8,0.1
					C1552.4,161.5,1556,161.8,1555.3,160.2z"/>
				<path style="fill:#FCD001;" d="M1554.7,163.4c-0.2-0.9-2.5-1.8-2.9-0.5c-0.3,1.3,1.8,1.8,2.6,1.1
					C1554.7,163.9,1554.7,163.7,1554.7,163.4z"/>
				<path style="fill:#FCD001;" d="M1551.2,167.7c0.8,0.9,2.6,1.2,3.3,0c0.7-1.2-0.9-2.3-2.1-2.3c-1.3,0-2,1.2-1.3,2.1
					C1551.1,167.6,1551.2,167.7,1551.2,167.7z"/>
			</g>
			<ellipse style="opacity:0.6;fill:#EA711F;" cx="1563.7" cy="174.4" rx="6.2" ry="1.3"/>
			<ellipse style="opacity:0.6;fill:#EA711F;" cx="1581.9" cy="167.2" rx="6.2" ry="1.3"/>
			<g>
				<path style="fill:#F2582F;" d="M1564.2,163.2c0.1-0.4,0.5-0.6,0.9-0.5c0.4,0.1,0.6,0.5,0.5,0.9c-0.7,2.5-1.5,8-1.3,10.2
					c0,0.4-0.3,0.7-0.7,0.8c0,0,0,0-0.1,0c-0.4,0-0.7-0.3-0.7-0.7C1562.7,171.6,1563.5,165.9,1564.2,163.2z"/>
				<path style="fill:#F2582F;" d="M1565.7,162.1c-0.5-0.9,2-2.5,2.4-1.3S1566.3,163.1,1565.7,162.1z"/>
				<path style="fill:#F2582F;" d="M1568,168.4c0.5-0.1,1.3-0.6,1-1.3c-0.1-0.3-0.4-0.6-0.7-0.7c-0.4-0.2-1-0.3-1.4-0.2
					c-0.4,0-0.9,0.3-1.1,0.6C1564.9,168.1,1566.8,168.7,1568,168.4z"/>
				<path style="fill:#F2582F;" d="M1567.3,165.1c0.8,0.3,2.1-0.2,2-1.1c0-0.4-0.6-0.7-1-0.7c-0.7-0.1-2.1,0.2-1.7,1.3
					C1566.8,164.8,1567,165,1567.3,165.1z"/>
				<path style="fill:#F2582F;" d="M1565.5,170.5c-0.2,0.2-0.2,0.5-0.2,0.8c0.1,0.5,0.5,0.9,0.9,1.1c0.9,0.4,2.1-0.1,2.8-0.8
					c0.3-0.3,0.5-0.7,0.5-1.1C1569.5,169.1,1566.3,169.3,1565.5,170.5z"/>
				<path style="fill:#F2582F;" d="M1564.2,162.3c0.4-0.2,0.5-0.9,0.4-1.4c-0.1-0.5-0.5-0.9-1-0.8c-1,0.1-0.8,1.8-0.1,2.2
					C1563.7,162.4,1564,162.4,1564.2,162.3z"/>
				<path style="fill:#F2582F;" d="M1563.1,163.4c0-0.1-0.1-0.2-0.2-0.3c-0.4-0.6-1.5-0.6-1.8,0.1
					C1560.2,164.7,1563.8,165,1563.1,163.4z"/>
				<path style="fill:#F2582F;" d="M1562.4,166.6c-0.2-0.9-2.5-1.8-2.9-0.5c-0.3,1.3,1.8,1.8,2.6,1.1
					C1562.4,167.1,1562.5,166.9,1562.4,166.6z"/>
				<path style="fill:#F2582F;" d="M1559,170.9c0.8,0.9,2.6,1.2,3.3,0c0.7-1.2-0.9-2.3-2.1-2.3c-1.3,0-2,1.2-1.3,2.1
					C1558.9,170.8,1558.9,170.9,1559,170.9z"/>
			</g>
			<g>
				<path style="fill:#FCD001;" d="M1582.4,157.9c0.1-0.3,0.4-0.5,0.7-0.4c0.3,0.1,0.5,0.4,0.4,0.7c-0.6,2-1.2,6.4-1.1,8.1
					c0,0.3-0.2,0.6-0.5,0.6c0,0,0,0,0,0c-0.3,0-0.6-0.2-0.6-0.5C1581.2,164.5,1581.8,160,1582.4,157.9z"/>
				<path style="fill:#FCD001;" d="M1583.6,157c-0.4-0.7,1.6-2,1.9-1C1585.9,157,1584.1,157.8,1583.6,157z"/>
				<path style="fill:#FCD001;" d="M1585.5,162c0.4-0.1,1-0.5,0.8-1c-0.1-0.3-0.3-0.4-0.6-0.5c-0.3-0.1-0.8-0.2-1.2-0.2
					c-0.3,0-0.7,0.2-0.9,0.5C1583,161.8,1584.5,162.3,1585.5,162z"/>
				<path style="fill:#FCD001;" d="M1584.9,159.4c0.7,0.2,1.7-0.2,1.6-0.9c0-0.3-0.5-0.5-0.8-0.6c-0.6-0.1-1.7,0.2-1.4,1
					C1584.5,159.1,1584.7,159.3,1584.9,159.4z"/>
				<path style="fill:#FCD001;" d="M1583.5,163.7c-0.1,0.2-0.2,0.4-0.1,0.6c0.1,0.4,0.4,0.7,0.8,0.9c0.8,0.3,1.7-0.1,2.2-0.6
					c0.2-0.2,0.4-0.6,0.4-0.9C1586.6,162.5,1584.1,162.7,1583.5,163.7z"/>
				<path style="fill:#FCD001;" d="M1582.4,157.1c0.3-0.2,0.4-0.7,0.3-1.1c-0.1-0.4-0.4-0.7-0.8-0.7c-0.8,0.1-0.7,1.4-0.1,1.7
					C1582.1,157.2,1582.2,157.2,1582.4,157.1z"/>
				<path style="fill:#FCD001;" d="M1581.5,158c0-0.1-0.1-0.2-0.1-0.2c-0.3-0.5-1.2-0.5-1.5,0.1
					C1579.2,159.1,1582.1,159.3,1581.5,158z"/>
				<path style="fill:#FCD001;" d="M1581,160.6c-0.2-0.8-2-1.5-2.3-0.4c-0.3,1.1,1.4,1.5,2.1,0.9C1581,161,1581.1,160.8,1581,160.6z
					"/>
				<path style="fill:#FCD001;" d="M1578.2,164c0.6,0.7,2.1,1,2.6,0c0.6-1-0.8-1.8-1.7-1.8c-1,0-1.6,0.9-1,1.7
					C1578.2,163.9,1578.2,164,1578.2,164z"/>
			</g>
		</g>
		<g>
			<ellipse style="opacity:0.6;fill:#EA711F;" cx="1314.5" cy="189.7" rx="6.2" ry="1.3"/>
			<ellipse style="opacity:0.6;fill:#EA711F;" cx="1323" cy="186" rx="6.2" ry="1.3"/>
			<ellipse style="opacity:0.6;fill:#EA711F;" cx="1348.8" cy="185.3" rx="6.2" ry="1.3"/>
			<g>
				<path style="fill:#EFB000;" d="M1323.4,176.6c0.1-0.3,0.4-0.5,0.7-0.4c0.3,0.1,0.5,0.4,0.4,0.7c-0.6,2.1-1.2,6.6-1.1,8.5
					c0,0.3-0.2,0.6-0.6,0.6c0,0,0,0,0,0c-0.3,0-0.6-0.2-0.6-0.6C1322.1,183.5,1322.8,178.8,1323.4,176.6z"/>
				<path style="fill:#EFB000;" d="M1324.6,175.7c-0.5-0.8,1.6-2.1,2-1.1S1325.1,176.5,1324.6,175.7z"/>
				<path style="fill:#EFB000;" d="M1326.5,180.9c0.5-0.1,1-0.5,0.9-1.1c-0.1-0.3-0.3-0.5-0.6-0.6c-0.3-0.1-0.8-0.2-1.2-0.2
					c-0.4,0-0.7,0.2-0.9,0.5C1324,180.7,1325.5,181.2,1326.5,180.9z"/>
				<path style="fill:#EFB000;" d="M1326,178.2c0.7,0.2,1.7-0.2,1.7-0.9c0-0.4-0.5-0.6-0.8-0.6c-0.6-0.1-1.7,0.2-1.4,1
					C1325.5,177.9,1325.7,178.1,1326,178.2z"/>
				<path style="fill:#EFB000;" d="M1324.5,182.7c-0.1,0.2-0.2,0.4-0.1,0.7c0.1,0.4,0.4,0.8,0.8,0.9c0.8,0.3,1.8-0.1,2.3-0.7
					c0.2-0.2,0.4-0.6,0.4-0.9C1327.8,181.5,1325.2,181.7,1324.5,182.7z"/>
				<path style="fill:#EFB000;" d="M1323.3,175.9c0.3-0.2,0.4-0.7,0.3-1.1c-0.1-0.4-0.4-0.8-0.8-0.7c-0.8,0.1-0.7,1.5-0.1,1.8
					C1323,176,1323.2,176,1323.3,175.9z"/>
				<path style="fill:#EFB000;" d="M1322.4,176.7c0-0.1-0.1-0.2-0.1-0.3c-0.3-0.5-1.2-0.5-1.5,0.1
					C1320,177.9,1323,178.1,1322.4,176.7z"/>
				<path style="fill:#EFB000;" d="M1321.9,179.4c-0.2-0.8-2.1-1.5-2.4-0.4c-0.3,1.1,1.5,1.5,2.2,1
					C1321.9,179.8,1322,179.6,1321.9,179.4z"/>
				<path style="fill:#EFB000;" d="M1319,183c0.7,0.8,2.2,1,2.7,0c0.6-1-0.8-1.9-1.8-1.9c-1.1,0-1.6,1-1.1,1.8
					C1319,182.9,1319,182.9,1319,183z"/>
			</g>
			<g>
				<path style="fill:#FCD001;" d="M1315.4,178.5c0.1-0.4,0.5-0.6,0.9-0.5c0.4,0.1,0.6,0.5,0.5,0.9c-0.7,2.5-1.5,8-1.3,10.2
					c0,0.4-0.3,0.7-0.7,0.8c0,0,0,0-0.1,0c-0.4,0-0.7-0.3-0.7-0.7C1313.8,186.8,1314.6,181.1,1315.4,178.5z"/>
				<path style="fill:#FCD001;" d="M1316.9,177.4c-0.5-0.9,2-2.5,2.4-1.3C1319.6,177.3,1317.5,178.4,1316.9,177.4z"/>
				<path style="fill:#FCD001;" d="M1319.2,183.7c0.5-0.1,1.3-0.6,1-1.3c-0.1-0.3-0.4-0.6-0.7-0.7c-0.4-0.2-1-0.3-1.4-0.2
					c-0.4,0-0.9,0.3-1.1,0.6C1316.1,183.4,1317.9,184,1319.2,183.7z"/>
				<path style="fill:#FCD001;" d="M1318.5,180.4c0.8,0.3,2.1-0.2,2-1.1c0-0.4-0.6-0.7-1-0.7c-0.7-0.1-2.1,0.2-1.7,1.3
					C1317.9,180.1,1318.2,180.3,1318.5,180.4z"/>
				<path style="fill:#FCD001;" d="M1316.7,185.8c-0.2,0.2-0.2,0.5-0.2,0.8c0.1,0.5,0.5,0.9,0.9,1.1c0.9,0.4,2.1-0.1,2.8-0.8
					c0.3-0.3,0.5-0.7,0.5-1.1C1320.6,184.3,1317.5,184.6,1316.7,185.8z"/>
				<path style="fill:#FCD001;" d="M1315.3,177.6c0.4-0.2,0.5-0.9,0.4-1.4c-0.1-0.5-0.5-0.9-1-0.8c-1,0.1-0.8,1.8-0.1,2.2
					C1314.9,177.7,1315.1,177.7,1315.3,177.6z"/>
				<path style="fill:#FCD001;" d="M1314.2,178.6c0-0.1-0.1-0.2-0.2-0.3c-0.4-0.6-1.5-0.6-1.8,0.1
					C1311.3,180,1314.9,180.2,1314.2,178.6z"/>
				<path style="fill:#FCD001;" d="M1313.6,181.9c-0.2-0.9-2.5-1.8-2.9-0.5c-0.3,1.3,1.8,1.8,2.6,1.1
					C1313.6,182.3,1313.7,182.1,1313.6,181.9z"/>
				<path style="fill:#FCD001;" d="M1310.1,186.1c0.8,0.9,2.6,1.2,3.3,0c0.7-1.2-0.9-2.3-2.1-2.3c-1.3,0-2,1.2-1.3,2.1
					C1310,186,1310.1,186.1,1310.1,186.1z"/>
			</g>
			<g>
				<path style="fill:#EFB000;" d="M1348.6,176c0.1-0.3,0.4-0.5,0.7-0.4c0.3,0.1,0.5,0.4,0.4,0.7c-0.6,2-1.2,6.5-1.1,8.3
					c0,0.3-0.2,0.6-0.5,0.6c0,0,0,0,0,0c-0.3,0-0.6-0.2-0.6-0.5C1347.3,182.8,1348,178.2,1348.6,176z"/>
				<path style="fill:#EFB000;" d="M1349.8,175.1c-0.4-0.7,1.6-2.1,1.9-1C1352.1,175.1,1350.3,176,1349.8,175.1z"/>
				<path style="fill:#EFB000;" d="M1351.7,180.3c0.4-0.1,1-0.5,0.8-1.1c-0.1-0.3-0.3-0.5-0.6-0.6c-0.3-0.1-0.8-0.2-1.2-0.2
					c-0.4,0-0.7,0.2-0.9,0.5C1349.2,180,1350.7,180.5,1351.7,180.3z"/>
				<path style="fill:#EFB000;" d="M1351.1,177.6c0.7,0.2,1.7-0.2,1.7-0.9c0-0.4-0.5-0.6-0.8-0.6c-0.6-0.1-1.7,0.2-1.4,1
					C1350.7,177.3,1350.9,177.5,1351.1,177.6z"/>
				<path style="fill:#EFB000;" d="M1349.7,182c-0.1,0.2-0.2,0.4-0.1,0.7c0.1,0.4,0.4,0.8,0.8,0.9c0.8,0.3,1.7-0.1,2.3-0.7
					c0.2-0.2,0.4-0.6,0.4-0.9C1352.9,180.8,1350.3,181,1349.7,182z"/>
				<path style="fill:#EFB000;" d="M1348.6,175.3c0.3-0.2,0.4-0.7,0.3-1.1c-0.1-0.4-0.4-0.7-0.8-0.7c-0.8,0.1-0.7,1.5-0.1,1.8
					C1348.2,175.4,1348.4,175.4,1348.6,175.3z"/>
				<path style="fill:#EFB000;" d="M1347.7,176.2c0-0.1-0.1-0.2-0.1-0.2c-0.3-0.5-1.2-0.5-1.5,0.1
					C1345.3,177.3,1348.2,177.5,1347.7,176.2z"/>
				<path style="fill:#EFB000;" d="M1347.2,178.8c-0.2-0.8-2-1.5-2.3-0.4c-0.3,1.1,1.4,1.5,2.1,0.9
					C1347.1,179.2,1347.2,179,1347.2,178.8z"/>
				<path style="fill:#EFB000;" d="M1344.3,182.3c0.7,0.7,2.1,1,2.7,0c0.6-1-0.8-1.9-1.8-1.9c-1,0-1.6,0.9-1,1.7
					C1344.2,182.2,1344.3,182.2,1344.3,182.3z"/>
			</g>
		</g>
		<g>
			<ellipse style="opacity:0.6;fill:#EA711F;" cx="1747.2" cy="172.1" rx="9.2" ry="1.9"/>
			<ellipse style="opacity:0.6;fill:#EA711F;" cx="1759.1" cy="167.3" rx="9.2" ry="1.9"/>
			<ellipse style="opacity:0.6;fill:#EA711F;" cx="1779.8" cy="170.8" rx="9.2" ry="1.9"/>
			<g>
				<path style="fill:#F2582F;" d="M1760.4,153.6c0.1-0.5,0.6-0.7,1.1-0.6c0.5,0.1,0.7,0.6,0.6,1.1c-0.9,3-1.8,9.6-1.6,12.2
					c0,0.5-0.3,0.9-0.8,0.9c0,0,0,0-0.1,0c-0.4,0-0.8-0.3-0.9-0.8C1758.5,163.6,1759.5,156.8,1760.4,153.6z"/>
				<path style="fill:#F2582F;" d="M1762.2,152.3c-0.7-1.1,2.4-3,2.8-1.5C1765.5,152.2,1762.9,153.5,1762.2,152.3z"/>
				<path style="fill:#F2582F;" d="M1764.9,159.8c0.7-0.2,1.5-0.8,1.2-1.6c-0.1-0.4-0.5-0.7-0.8-0.8c-0.5-0.2-1.2-0.3-1.7-0.2
					c-0.5,0.1-1,0.3-1.3,0.7C1761.2,159.4,1763.4,160.2,1764.9,159.8z"/>
				<path style="fill:#F2582F;" d="M1764.1,155.8c1,0.3,2.5-0.3,2.4-1.4c0-0.5-0.7-0.8-1.2-0.9c-0.9-0.1-2.5,0.3-2.1,1.5
					C1763.4,155.5,1763.7,155.7,1764.1,155.8z"/>
				<path style="fill:#F2582F;" d="M1761.9,162.3c-0.2,0.3-0.3,0.6-0.2,1c0.1,0.6,0.6,1.1,1.1,1.3c1.1,0.4,2.5-0.1,3.3-1
					c0.4-0.4,0.6-0.8,0.6-1.3C1766.7,160.6,1762.9,160.9,1761.9,162.3z"/>
				<path style="fill:#F2582F;" d="M1760.3,152.5c0.5-0.3,0.6-1,0.4-1.6c-0.1-0.6-0.6-1.1-1.2-1c-1.2,0.2-1,2.2-0.1,2.6
					C1759.8,152.6,1760.1,152.6,1760.3,152.5z"/>
				<path style="fill:#F2582F;" d="M1759,153.8c-0.1-0.1-0.1-0.2-0.2-0.4c-0.5-0.7-1.8-0.7-2.2,0.1
					C1755.5,155.4,1759.8,155.7,1759,153.8z"/>
				<path style="fill:#F2582F;" d="M1758.2,157.7c-0.3-1.1-3-2.2-3.4-0.6c-0.4,1.6,2.1,2.2,3.1,1.4
					C1758.2,158.2,1758.3,157.9,1758.2,157.7z"/>
				<path style="fill:#F2582F;" d="M1754.1,162.8c1,1.1,3.2,1.5,3.9,0c0.8-1.5-1.1-2.7-2.6-2.7c-1.5,0-2.4,1.4-1.5,2.6
					C1754,162.7,1754,162.7,1754.1,162.8z"/>
			</g>
			<g>
				<path style="fill:#FCD001;" d="M1748,155.7c0.2-0.6,0.8-0.9,1.3-0.7c0.6,0.2,0.9,0.8,0.7,1.3c-1.1,3.7-2.2,12-2,15.3
					c0,0.6-0.4,1.1-1,1.2c0,0-0.1,0-0.1,0c-0.6,0-1-0.4-1.1-1C1745.6,168.1,1746.9,159.6,1748,155.7z"/>
				<path style="fill:#FCD001;" d="M1750.2,154c-0.8-1.4,2.9-3.8,3.6-1.9C1754.4,154,1751.2,155.5,1750.2,154z"/>
				<path style="fill:#FCD001;" d="M1753.7,163.4c0.8-0.2,1.9-1,1.6-1.9c-0.2-0.5-0.6-0.8-1.1-1c-0.6-0.3-1.5-0.4-2.2-0.3
					c-0.7,0.1-1.3,0.4-1.7,0.9C1749,163,1751.8,163.9,1753.7,163.4z"/>
				<path style="fill:#FCD001;" d="M1752.6,158.5c1.3,0.4,3.2-0.3,3.1-1.7c0-0.7-0.9-1-1.5-1.1c-1.1-0.2-3.2,0.3-2.6,1.9
					C1751.8,158.1,1752.2,158.3,1752.6,158.5z"/>
				<path style="fill:#FCD001;" d="M1750,166.6c-0.2,0.3-0.3,0.8-0.3,1.2c0.1,0.8,0.7,1.4,1.4,1.7c1.4,0.6,3.2-0.2,4.2-1.2
					c0.4-0.4,0.8-1,0.8-1.7C1755.9,164.4,1751.2,164.8,1750,166.6z"/>
				<path style="fill:#FCD001;" d="M1747.9,154.3c0.6-0.3,0.7-1.3,0.6-2c-0.1-0.7-0.8-1.4-1.5-1.3c-1.5,0.2-1.2,2.7-0.1,3.2
					C1747.3,154.5,1747.6,154.5,1747.9,154.3z"/>
				<path style="fill:#FCD001;" d="M1746.3,155.9c-0.1-0.1-0.1-0.3-0.3-0.5c-0.6-0.9-2.2-0.9-2.8,0.1
					C1742,157.9,1747.3,158.3,1746.3,155.9z"/>
				<path style="fill:#FCD001;" d="M1745.3,160.8c-0.3-1.4-3.8-2.8-4.3-0.7c-0.5,2,2.6,2.8,3.9,1.7
					C1745.3,161.5,1745.4,161.1,1745.3,160.8z"/>
				<path style="fill:#FCD001;" d="M1740.1,167.2c1.2,1.4,3.9,1.8,4.9,0c1-1.9-1.4-3.4-3.2-3.4c-1.9,0-2.9,1.7-1.9,3.2
					C1740,167,1740,167.1,1740.1,167.2z"/>
			</g>
			<g>
				<path style="fill:#F2582F;" d="M1780.8,154.1c0.2-0.6,0.8-0.9,1.3-0.7c0.6,0.2,0.9,0.8,0.7,1.3c-1.1,3.7-2.2,12-2,15.3
					c0,0.6-0.4,1.1-1,1.2c0,0-0.1,0-0.1,0c-0.6,0-1-0.4-1.1-1C1778.4,166.5,1779.6,158,1780.8,154.1z"/>
				<path style="fill:#F2582F;" d="M1783,152.4c-0.8-1.4,2.9-3.8,3.6-1.9C1787.2,152.3,1783.9,153.9,1783,152.4z"/>
				<path style="fill:#F2582F;" d="M1786.5,161.8c0.8-0.2,1.9-1,1.6-1.9c-0.2-0.5-0.6-0.8-1.1-1c-0.6-0.3-1.5-0.4-2.2-0.3
					c-0.7,0.1-1.3,0.4-1.7,0.9C1781.8,161.4,1784.6,162.3,1786.5,161.8z"/>
				<path style="fill:#F2582F;" d="M1785.4,156.9c1.3,0.4,3.2-0.3,3.1-1.7c0-0.7-0.9-1-1.5-1.1c-1.1-0.2-3.2,0.3-2.6,1.9
					C1784.6,156.4,1785,156.7,1785.4,156.9z"/>
				<path style="fill:#F2582F;" d="M1782.7,165c-0.2,0.3-0.3,0.8-0.3,1.2c0.1,0.8,0.7,1.4,1.4,1.7c1.4,0.6,3.2-0.2,4.2-1.2
					c0.4-0.4,0.8-1,0.8-1.7C1788.7,162.8,1784,163.2,1782.7,165z"/>
				<path style="fill:#F2582F;" d="M1780.7,152.7c0.6-0.3,0.7-1.3,0.6-2c-0.1-0.7-0.8-1.4-1.5-1.3c-1.5,0.2-1.2,2.7-0.1,3.2
					C1780.1,152.9,1780.4,152.8,1780.7,152.7z"/>
				<path style="fill:#F2582F;" d="M1779,154.3c-0.1-0.1-0.1-0.3-0.3-0.5c-0.6-0.9-2.2-0.9-2.8,0.1
					C1774.7,156.3,1780.1,156.7,1779,154.3z"/>
				<path style="fill:#F2582F;" d="M1778.1,159.1c-0.3-1.4-3.8-2.8-4.3-0.7c-0.5,2,2.6,2.8,3.9,1.7
					C1778.1,159.8,1778.2,159.5,1778.1,159.1z"/>
				<path style="fill:#F2582F;" d="M1772.9,165.5c1.2,1.4,3.9,1.8,4.9,0c1-1.9-1.4-3.4-3.2-3.4c-1.9,0-2.9,1.7-1.9,3.2
					C1772.8,165.4,1772.8,165.5,1772.9,165.5z"/>
			</g>
		</g>
	</g>
	<g>
		<g>
			<g>
				<g>
					<g>
						<path style="fill:#127FD2;" d="M858.6,76.2c3.3,5.7,10.9,5.8,13.7,12.1c1.6,3.7,2,6.7,5.2,9.4c2.8,2.4,6.6,2.8,10.1,2.2
							c0.1,0-0.1-1.9,0-1.9c-7.7,1.5-12.7-3.3-14.8-10.3c-2.3-7.5-10.6-7.2-14.2-13.5C858.9,74.8,858.3,75.8,858.6,76.2L858.6,76.2z
							"/>
					</g>
				</g>
				<g>
					<g>
						<path style="fill:#2EAAEF;" d="M856.8,74.1c5.6,8.8,18.6,2.6,24.3,11.4c2.6,4,4,6.6,9.2,6.7c4.5,0.1,8-3.6,10.4-6.9
							c0.3-0.4-0.3-1.5,0-1.9c-2.6,3.7-5.7,6.5-10.4,6.9c-4.8,0.5-7.2-3.1-9.2-6.7c-4.8-9.2-18.7-2.7-24.3-11.4
							C857,72.7,856.5,73.7,856.8,74.1L856.8,74.1z"/>
					</g>
				</g>
				<path style="fill:#2EAAEF;" d="M848.2,54.2c-0.3,0.1-13.4-0.9-13.4-0.9l7.2,6.8L848.2,54.2z"/>
				<path style="fill:#127FD2;" d="M860.5,77.5c0,0-12-23.4-12.3-23.3l-6.3,5.8L860.5,77.5z"/>
				<polygon style="fill:#127FD2;" points="834.7,53.3 836.4,65.1 841.9,60 				"/>
				<polygon style="fill:#2EAAEF;" points="841.9,60 836.4,65.1 860.5,77.5 				"/>
			</g>
			<g>
				<path style="fill:#FFFFFF;" d="M841.6,60.4c0,0,0.9-0.1,2.7-0.1c1.7,0,4.3,0,7.5,0.6c1.6,0.3,3.4,0.8,4.9,2.1
					c0.8,0.6,1.3,1.6,1.4,2.7c0.1,1.1-0.2,2.2-0.7,3.2c-1,2-2.7,3.8-4.6,5.6c-1.9,1.7-4,3.4-6.3,4.9c-4.6,3.2-9.8,6.2-15.5,9
					c-5.7,2.9-11.8,5.6-18.3,8.3c-12.9,5.3-27,10-41.2,14.1c-7.1,2.1-14.3,3.9-21.4,5.8c-3.5,0.9-7.1,1.7-10.5,2.6
					c-3.5,0.8-6.9,1.6-10.3,2.3c-3.4,0.7-6.7,1.4-10,2.1c-3.3,0.7-6.5,1.3-9.6,1.9c-6.3,1.2-12.2,2.3-17.7,3.2
					c-5.5,0.9-10.5,1.7-15,2.4c-4.5,0.6-8.4,1.2-11.6,1.6c-6.4,0.8-10.1,1.1-10.1,1.1s3.7-0.4,10.1-1.3c3.2-0.4,7.1-1,11.6-1.7
					c4.5-0.7,9.5-1.5,15-2.5c5.5-1,11.4-2.1,17.7-3.3c3.1-0.6,6.3-1.3,9.6-2c3.3-0.7,6.6-1.4,10-2.2c3.4-0.8,6.8-1.6,10.3-2.4
					c3.5-0.8,7-1.7,10.5-2.5c7.1-1.8,14.3-3.6,21.4-5.7c14.3-4.1,28.3-8.8,41.2-14c6.4-2.6,12.6-5.3,18.3-8.2
					c5.7-2.9,10.9-5.8,15.5-9c2.3-1.6,4.4-3.2,6.3-4.9c1.9-1.7,3.5-3.5,4.6-5.5c0.5-1,0.8-2.1,0.8-3.1c-0.1-1-0.6-2-1.4-2.6
					c-1.5-1.3-3.3-1.7-4.9-2.1c-3.2-0.6-5.8-0.6-7.5-0.6C842.6,60.4,841.6,60.4,841.6,60.4z"/>
			</g>
		</g>
		<g>
			
				<ellipse transform="matrix(0.9789 -0.2045 0.2045 0.9789 -9.4852 134.2071)" style="fill:#F7C9A8;" cx="644.6" cy="113" rx="6.7" ry="7.4"/>
			<path style="fill:#F7C9A8;" d="M644.6,123c0.4,0,0.8,0,1.2-0.1c0.4-0.1,0.7-0.3,0.9-0.6c0.1-0.2,0.1-0.5,0.1-0.7
				c0-0.6,0-1.2,0-1.8c0-0.4,0-0.9-0.4-1.1c-0.3-0.2-0.7-0.1-1-0.1c-0.7,0.1-1.5,0.3-1.8,0.8c-0.1,0.3-0.1,0.6-0.1,0.8
				c0,0.6,0.1,1.3,0.1,1.9c0,0.1,0,0.3,0.1,0.4C643.8,122.9,644.2,122.9,644.6,123z"/>
			<path style="fill:#EBB59A;" d="M645.8,116.9l-1.7,0.2c0,0-1.6,0.2-1.7,0.3s-0.6,1.8-0.6,1.8l0.3,0.6c0.6,0.3,1.1,0.5,1.7,0.6
				c0,0.6,0.1,1.3,0.1,1.9c0,0,0,0.1,0,0.1l1.9,0.5l1.2-0.5c0,0,0-0.1,0.1-0.1c0.1-0.2,0.1-0.5,0.1-0.7c0-0.5,0-1.1,0-1.6
				c0.8-0.3,1.5-0.8,2.1-1.4C648,119.1,646.4,118.3,645.8,116.9z"/>
			<path style="fill:#EBB59A;" d="M646.1,115c0-0.1-0.1-0.2-0.2-0.3s-0.2-0.1-0.3-0.1c-0.2,0.1-0.2,0.3-0.2,0.5
				c0,0.2,0.2,0.3,0.3,0.5c0.1,0.1,0.2,0.2,0.3,0.2c0.1,0,0.1-0.1,0.1-0.2C646.2,115.3,646.2,115.1,646.1,115z"/>
			<path style="fill:#281B18;" d="M647,111.1c-0.1-0.1-0.2-0.2-0.4-0.3c0.2,0.1-0.2,1.3-0.2,1.5c-0.1,0.6-0.1,1.1,0,1.7
				c-0.4-0.4-1.1-0.6-1.5-0.1c-0.2,0.3-0.3,0.6-0.3,1c0,0.8,0.5,1.5,1.2,1.9c-0.1,0.7-0.1,1.4-0.5,2.1c-0.3-0.5-0.7-0.8-1.2-1.1
				c-0.2,0.6-0.3,1.2-0.2,1.8c-0.4-0.3-0.9-0.5-1.2-0.9c0.1,0.6,0.3,1.1,0.7,1.6c-0.1-0.1-0.8-0.2-1-0.3c-0.4-0.1-0.8-0.3-1.2-0.5
				c-0.8-0.5-1.7-1.3-2.3-2.1c-0.5-0.6-1.4-1.9-1.2-2.8c-0.1,0.5-0.1,0.9-0.2,1.4c-0.4-1.1-0.7-2.5-0.5-3.6c0.1-0.9,0.2-2.1,0.9-2.8
				c-0.4,0.5-0.8,1-1.1,1.6c0.8-3.6,4.2-6.5,8-6.2c1.9,0.2,3.6,1.1,4.8,2.5c0.9,1,1.2,2.2,1.5,3.5c-0.2-0.9-1.3-1.5-2-1.8
				c0.1,1.1,0.1,2.7-0.5,3.7C647.9,112.3,647.6,111.6,647,111.1z"/>
			<path style="fill:#127FD2;" d="M643.3,125.6c-0.8,0.3-0.9,1.3-1,2.1c-0.3,3-0.5,5.9-0.8,8.9c-0.1,1.4-0.2,2.8,0.4,4
				c0.6,1.2,2.3,1.9,3.4,1.1c0.8-0.6,0.9-1.7,1-2.8c0.2-3.8,0.4-7.6-0.6-11.3c-0.2-0.6-0.4-1.2-0.8-1.6S643.9,125.4,643.3,125.6z"/>
			<path style="fill:#127FD2;" d="M649,175.5c0.5-0.5,0.9-1.1,1.4-1.8c1-1.5,0.3-3.3,0.3-5c0.1-3.5,0.2-6.9,0.3-10.4
				c0.1-2.3,0.1-4.6,0.1-6.9c0-0.9,0-1.8-0.3-2.7c-0.5-2.1-2.7-2.1-4.4-1.7c-0.9,0.2-0.9,0.3-0.9,1.1c-0.1,0.7,0.3,1.4,0.4,2
				c0.6,2.4,0.7,4.9,0.8,7.4c0.1,2.6,0.2,5.5-0.3,8.1c-0.6,2.7-1.2,5.5-1.8,8.2c-0.1,0.6-0.3,1.2,0,1.8c0.3,0.7,1.2,0.9,1.9,0.9
				C647.5,176.6,648.3,176.1,649,175.5z"/>
			<path style="fill:#412E2A;" d="M644.4,175.9c-0.2,0.4-0.4,0.8-0.6,1.3c-0.3,0.9-0.7,2.5-0.1,3.4c0.6,0.8,1.8,1.1,2.8,1.2
				c1.5,0.1,2.7,0.4,4.2,0.4c0.6,0,1.3,0,1.8-0.2c0.6-0.2,1.1-0.7,1.2-1.3c0.1-0.8-0.5-1.5-1.2-2c-1.4-1-2.7-1.4-3.6-3
				c-0.7-1.3-1.8-1.8-3.1-1.1C645.3,175,644.8,175.4,644.4,175.9z"/>
			<path style="fill:#281B18;" d="M646,172.8c-0.5,0.8-1.2,1.5-1.7,2.4c-0.4,0.6-0.8,1.4-0.7,2.2c0.2,1,1,1.8,1.9,2.3
				c1.6,1.1,3,2.5,5.1,2.7c1.1,0.1,3.1,0.1,2.9-1.5c-0.1-0.6-0.5-1.2-1-1.6c-0.5-0.4-1-0.8-1.4-1.4c-0.5-0.7-0.7-1.6-0.7-2.5
				c0-0.8-0.2-1.6-0.9-2c-0.6-0.4-1.6-0.4-2.3-0.3C646.6,173.2,646.4,172.2,646,172.8z"/>
			<path style="fill:#1797EB;" d="M649.8,176.5c0.5,0.3,0.9,0.5,1,0.6c-0.1-0.8,0.5-1.5,0.9-2.2c0.4-0.7,1-1.4,1.4-2.2
				c0.4-0.7,0.7-1.5,1-2.2c0.4-1,0.7-2.1,1-3.2c0.6-2.2,1.1-4.6,1.2-6.9c0.2-3.5-0.8-7-0.5-10.6c0.1-0.7,0.2-1.4,0.3-2.2
				c0.1-0.5,0.5-1.2,0.1-1.6c-0.2-0.2-0.4-0.2-0.7-0.3c-0.8-0.1-1.4,0.1-2.1,0.2c-0.6,0-1.1-0.2-1.8,0c-1.5,0.5-2.2,2.3-2.1,3.7
				c0.3,3.4,0.8,6.7,0.6,10.1c-0.1,2.7-0.5,5.4-1.5,7.9c-0.4,1.1-1,2.2-1.6,3.2c-0.8,1.2-1.6,2.4-2.3,3.6
				C645.1,173.9,648.2,175.6,649.8,176.5z"/>
			<path style="fill:#1797EB;" d="M647.5,150.9c1.8-0.1,3.9-1.3,5.2-1.7c1.3-0.5,2.6-0.9,3.8-1.5c0.9-0.5,2.1-1.4,2.4-2.4
				c0.2-0.6,0-1.3-0.2-1.9c-0.4-0.9-0.8-1.8-1.3-2.6c-1.1-1.8-2.1-3.6-3.1-5.5c-0.4-0.8-0.9-1.6-1.3-2.4c-0.4-0.9-0.8-1.9-1.1-2.8
				c-0.4-1.3-0.8-2.6-1.5-3.8c-0.7-1.2-1.9-2.1-3.3-2.2c-1.4,0-2.7,1-3.4,2.3c-0.7,1.3-0.7,2.6-0.7,4.1c0.1,1.7,0,3.4,0.1,5.1
				c0.2,4.4,0.4,8.9,1.5,13.1c0.2,0.6,0.4,1.2,0.8,1.6C646,150.8,646.7,151,647.5,150.9z"/>
			<path style="fill:#127FD2;" d="M654.3,135.2c-0.4-0.8-0.9-1.6-1.3-2.4c-0.3-0.6-0.5-1.2-0.8-1.8c-1.7-1.7-3.5-3.2-5.4-4.7
				c0.3,1.3,0.8,2.6,1.5,3.7c0.8,1.3,1.6,2.5,2.5,3.7c1.3,1.7,2.8,3.3,4.6,4.5c0.2,0.1,0.3,0.2,0.5,0.2c0,0,0.1,0,0.1,0
				C655.5,137.4,654.9,136.3,654.3,135.2z"/>
			<path style="fill:#1797EB;" d="M664.6,133.4c0.7-0.2,1.5-0.5,2.2-0.8c0.6-0.3,1.3-0.6,1.7-1.1c0.4-0.5,0.6-1.3,0.3-1.9
				c-0.4-0.7-1.3-0.8-2.1-0.8c-2,0.1-4,0.7-6,1c-1.4,0.2-3,0.3-4.4-0.2c-0.6-0.2-1.1-0.5-1.7-0.7c-0.6-0.2-1.2-0.7-1.7-1.1
				c-0.8-0.8-1.2-1.7-1.8-2.6c-0.5-0.8-0.9-1.7-2-1.9c-1.5-0.3-2.5,1.1-2.4,2.4c0,0.7,0.3,1.4,0.7,2c1.1,2.1,2.8,3.6,4.7,4.9
				c1,0.7,1.9,1,3,1.2c2.3,0.5,4.9,0.7,7.2,0.2C663.1,133.9,663.9,133.7,664.6,133.4z"/>
			<path style="fill:#127FD2;" d="M643.1,131.3c-0.1,0.5-0.1,0.9-0.1,1.4c0,0.1,0,0.3-0.1,0.4c-0.1,0.1-0.2,0.3-0.4,0.2
				c-0.2-0.1-0.1-0.2-0.1-0.3c0-0.4-0.1-0.6-0.1-1c0-0.4,0-0.7,0-1.1c0.1-0.6,0.2-1.3,0.3-1.9c0.1-0.5,0.3-1,0.6-1.5
				c0.4-0.9,1.2-1.6,1.9-2.2c0.4-0.3,0.8-0.6,1.2-0.9c0.4-0.2,0.9-0.4,1.3-0.5c-0.6,0.2-1.1,0.6-1.5,1.1
				C644.4,126.6,643.4,128.9,643.1,131.3z"/>
			<path style="fill:#61BEF2;" d="M650.3,124c0.1,0.1,0.3,0.3,0.4,0.5c-0.2-1.5-1.1-2.5-2.3-3.3c-1.2-0.8-3.3-0.3-4.5,0.1
				c-1.2,0.4-2.8,1-3.6,2.1c-1.3,1.9-0.2,5.1,1.9,6c-0.4-0.2,1.6-2.6,1.7-2.7c1.2-1.2,2.7-2.6,4.4-3
				C649.2,123.5,649.8,123.6,650.3,124z"/>
			<path style="fill:#127FD2;" d="M649.8,159.8c0.4-0.1,0.5-0.5,0.5-0.9c0.2-3.1,1.6-6.3,4.1-8.1c0.5-0.4,1-0.7,1.5-1.1
				c0.1-0.6,0.1-1.2,0.2-1.8c-1.1,0.5-2.3,0.9-3.5,1.4c-1,0.4-2.5,1.2-4,1.6c-0.3,1-0.4,2.1-0.5,3.1c-0.1,1.8,0,3.8,0.9,5.4
				C649.3,159.5,649.5,159.8,649.8,159.8z"/>
			<path style="fill:#F7C9A8;" d="M666.7,128.9c-0.6,0-1.1,0.1-1.7,0.2c0.9,1.1,1.4,2.2,1.3,3.6c0,0,0,0.1,0,0.1
				c0.1-0.1,0.3-0.1,0.4-0.2c0.6-0.3,1.3-0.6,1.7-1.1c0.4-0.5,0.6-1.3,0.3-1.9C668.4,129,667.5,128.8,666.7,128.9z"/>
		</g>
		<g>
			<path style="fill:#F7C9A8;" d="M683,118c0.6-1.7,1.9-3.1,3.6-3.7c4.2-1.4,7.4,2.6,7.9,6.4c0.2,2.1-0.2,4.4-1.8,5.9
				c-1.5,1.4-3.5,2.2-5.6,1.7c-2.3-0.6-4.2-2.6-4.6-5S682.2,120.3,683,118z"/>
			<path style="fill:#B32600;" d="M675.8,112.6c-0.4,1.8,0,3.8,0.4,5.6c0.9,4.3,2.4,8,4.6,11.8c1.3,2.2,3.1,5,5.3,6.4
				c0.7,0.4,1.8,0.4,2.1-0.5c0.4-1.1-1-2.5-1.6-3.3c-0.6-0.8-1-1.7-1.6-2.6c-1.3-2.2-2.6-4.3-3.5-6.7c-0.7-1.8-1.2-3.8-1.8-5.7
				c-0.5-1.7-0.5-3.6-1.3-5.3C677.8,110.9,676.2,110.7,675.8,112.6C675.8,112.5,675.8,112.6,675.8,112.6z"/>
			<path style="fill:#291C18;" d="M686,179.6c0.1,1,0.4,2,1.2,2.5c0.7,0.4,1.7,0.8,2.3,0c0.9-1.3,0.5-3.3,0.4-4.7
				c0-1.3-0.1-2.7-0.1-4c0-1.2,0.1-2.6-0.3-3.8c-0.4-1-2.2-1.9-3.1-1.1c-0.6,0.5-0.5,1.5-0.4,2.2c0,2.1,0.1,4.2,0.1,6.4
				C686,177.8,685.9,178.7,686,179.6z"/>
			<path style="fill:#291C18;" d="M694.2,182.3c0.6-0.1,1.3-0.6,1.5-1.2c0.3-0.6,0.3-1.3,0.3-2c0-2.7,0-5.4,0-8c0-1.2-0.2-3.9-2-3.6
				c-1.6,0.2-1.9,2.5-1.9,3.8c0,1.2,0.1,2.4,0.1,3.6c0.1,2,0.1,4.1,0.6,6c0.1,0.4,0.2,0.8,0.4,1
				C693.5,182.2,693.8,182.3,694.2,182.3z"/>
			<path style="fill:#694939;" d="M685.5,186c0-0.9,0-1.8,0-2.7c0-0.7-0.2-1.7,0.2-2.4c0.5-0.8,1.9-0.6,2.7-0.6c0.3,0,0.6,0,0.9,0
				c0.6,0.1,1,0.7,1.2,1.2c0.1,0.5-0.1,1.1,0.1,1.6c0.2,0.7,0.9,1.3,1.3,2c0.5,0.8,0.7,1.7,0.6,2.6c0,0.1,0,0.3-0.1,0.3
				c-0.1,0.1-0.2,0.1-0.4,0.1c-1.5,0.1-3.1,0.1-4.6,0.1c-0.6,0-1.4-0.2-1.7-0.7c-0.2-0.3-0.2-0.7-0.2-1.1
				C685.5,186.3,685.5,186.2,685.5,186z"/>
			<path style="fill:#694939;" d="M692.3,186c0-0.9,0-1.8,0-2.7c0-0.7-0.2-1.7,0.2-2.4c0.5-0.8,1.9-0.6,2.7-0.6c0.3,0,0.6,0,0.9,0
				c0.6,0.1,1,0.7,1.2,1.2c0.1,0.5-0.1,1.1,0.1,1.6c0.2,0.7,1.2,1.2,1.6,1.8c0.6,0.8,0.8,1.7,0.7,2.7c0,0.2,0,0.3-0.1,0.5
				c-0.1,0.2-0.4,0.2-0.6,0.2c-1.6,0-3.2-0.1-4.8-0.1c-0.6,0-1.4-0.2-1.7-0.7c-0.2-0.3-0.2-0.7-0.2-1.1
				C692.3,186.3,692.3,186.2,692.3,186z"/>
			<path style="fill:#E24217;" d="M681.7,163.9c-0.2,1.3-0.5,2.8-0.2,4.1c0.8,2.8,4.3,2,6.5,2c1.9,0,3.9,0.1,5.8,0
				c2.4-0.2,5.5,0.6,6.3-2.3c0.5-1.9-0.1-3.9-0.5-5.7c-0.7-3.4-1.5-6.7-2.3-10.1c-0.9-3.9-1.3-7.7-1.4-11.7c-0.1-2.1,0.9-5.2,2-7
				c1.3-2.2,3.8-3.8,5.3-5.9c2.8-3.9,5-8.4,5.3-13.3c0.1-1.4,0-5.1-2.4-3.4c-1.8,1.2-1.6,4.8-2,6.6c-0.3,1.5-1.2,3-2,4.3
				c-1.9,3-4.5,5.7-7.7,7.4c-0.9,0.5-2,0.8-3,1c-0.9,0.1-1.6-0.1-2.4,0.2c-1.7,0.7-3.2,2-4,3.6c-1.1,2.1-0.8,3.9-0.5,6.1
				c0.4,2.2,0.5,4.5,0.1,6.7c-0.6,3.7-1.3,7.3-1.9,11C682.5,159.5,682,161.7,681.7,163.9z"/>
			<path style="fill:#B32600;" d="M692.9,148.7c2.2-0.5,3.2-1.1,3.7-1.5l0,0c-0.3-2.3-0.5-4.6-0.5-7c-0.1-2.1,0.9-5.2,2-7
				c-0.5-0.8-1.3-1.5-2.1-1.9c-1.3-0.7-2.9-1-4.4-1.1c-1-0.1-2-0.1-3,0c-1.4,0.7-2.7,1.9-3.4,3.3c-1.1,2.1-0.8,3.9-0.5,6.1
				c0.4,2.2,0.5,4.5,0.1,6.7c-0.6,3.7-1.3,7.3-1.9,11c-0.3,1.8-0.7,3.5-1,5.3c0.5-2.1,1.5-4.7,2.8-7.4
				C686.4,151.9,689.3,149.5,692.9,148.7z"/>
			<path style="fill:#281B18;" d="M682.9,136.3c0.6,2.7,2.2,5.3,4.7,6.6c-0.4-0.7-0.3-1.6,0.2-2.1c0.4,0.8,1,1.4,1.8,1.8
				c-0.1,0,0-0.7,0-0.8c0.1-0.2,0.2-0.4,0.4-0.5c0.1,0.4,0.3,0.8,0.4,1.2c1.2-0.9,2-2.3,2.3-3.8c0.2,1-0.1,2.1-0.3,3
				c2.8-1.8,4.1-5.7,3-8.8c2.1,2.1,4.4,4.5,4.7,7.4c0.9-2.4,0.9-5.2,0-7.5c-0.8-2.1-2.5-4-4-5.7c-0.8-0.9-1.4-1.7-2-2.7
				c-0.6-1-1.1-1.9-1.4-3.1c-0.1-0.6-0.2-1.2-0.2-1.8c0-0.1,0.2-1.7,0.2-1.7c0.8,0.2,1.6,1.2,1.7,2.1c-0.1-2.9-2.4-5.8-5.2-6.4
				c-2.6-0.6-5.4,0.5-7,2.5c-1.3,1.6-1.9,3.7-1.6,5.7c0.3,2.1,1.5,3.9,2,5.9C683.2,130.5,682.3,133.4,682.9,136.3z"/>
			<path style="fill:#E24217;" d="M684.6,113.4c1.2-0.6,2.5-0.9,3.7-0.5c3.6,1.1,3.3,6,2.3,9c-0.7,2.3-2.4,4.3-4.6,4.9
				c-3.3,0.9-6.5-1.9-6.5-5.4C679.6,118,681.7,114.7,684.6,113.4z"/>
			<path style="fill:#E24217;" d="M694.8,146.3c1-0.2,2.2-0.3,2.3-1.5c0.1-0.8-0.5-1.5-1.4-1.4c-0.8,0.1-1.7,0.2-2.5,0.3
				c-1.7,0.1-3.4,0.2-5,0.1c-0.7,0-1.4-0.1-2-0.1c-0.5,0-1.1,0-1.5,0.3c-0.6,0.4-0.6,1.7,0,2c0.9,0.4,2.3,0.4,3.2,0.5
				C690,146.7,692.6,146.7,694.8,146.3z"/>
			<path style="fill:#F7C9A8;" d="M706.3,110.4c-1.2,0.8-1.5,2.7-1.7,4.4c0.5,0.5,1.2,0.8,1.9,0.9c0.7,0.1,1.5-0.1,2.1-0.6
				c0.1-0.4,0.1-0.9,0.1-1.3C708.8,112.4,708.7,108.8,706.3,110.4z"/>
			<path style="fill:#F2582F;" d="M703.9,115.3c-0.1,0.5-0.1,1,0.1,1.3c0.2,0.3,0.6,0.4,0.9,0.5c0.9,0.2,1.8,0.4,2.7,0.5
				c0.2,0,0.4,0,0.6-0.1c0.3-0.1,0.4-0.4,0.5-0.7c0.2-0.6,0.4-1.2,0-1.7c-0.2-0.3-0.6-0.4-0.9-0.6c-0.8-0.3-1.5-0.5-2.3-0.6
				c-0.3-0.1-0.7-0.1-1,0.1C704.1,114.4,704,114.9,703.9,115.3z"/>
			<path style="fill:#F7C9A8;" d="M677.7,117.1c0.7-0.2,1.3-0.8,1.7-1.4c-0.2-1.2-0.4-2.4-0.9-3.5c-0.7-1.4-2.2-1.5-2.7,0.3
				c0,0,0,0.1,0,0.1c-0.3,1.5-0.1,3,0.2,4.5C676.5,117.3,677.1,117.3,677.7,117.1z"/>
			<path style="fill:#E24217;" d="M675.4,117.1c0.1,0.4,0.3,0.9,0.7,1.1c0.3,0.2,0.7,0.1,1,0c0.9-0.2,1.8-0.4,2.6-0.7
				c0.2-0.1,0.4-0.2,0.5-0.3c0.2-0.2,0.1-0.6,0.1-0.8c-0.1-0.6-0.2-1.3-0.8-1.5c-0.3-0.2-0.7-0.1-1.1-0.1c-0.8,0.1-1.6,0.3-2.4,0.5
				c-0.3,0.1-0.7,0.2-0.9,0.5C675.1,116.2,675.2,116.7,675.4,117.1z"/>
			<g>
				<path style="fill:#B32600;" d="M691.3,118.9c-0.6,4.7-9.4,8.7-11.3,4.6c0.9,2.5,3.5,4.1,6.1,3.4c2.2-0.6,3.9-2.6,4.6-4.9
					C691,121,691.2,119.9,691.3,118.9z"/>
				<path style="fill:#C92B00;" d="M691.1,118.7L691.1,118.7L691.1,118.7z"/>
			</g>
		</g>
	</g>
</g>
</svg>
