<?xml version="1.0" encoding="utf-8"?>
<!-- Generator: Adobe Illustrator 18.0.0, SVG Export Plug-In . SVG Version: 6.00 Build 0)  -->
<!DOCTYPE svg PUBLIC "-//W3C//DTD SVG 1.1//EN" "http://www.w3.org/Graphics/SVG/1.1/DTD/svg11.dtd">
<svg version="1.1" id="图层_1" xmlns="http://www.w3.org/2000/svg" xmlns:xlink="http://www.w3.org/1999/xlink" x="0px" y="0px"
	 viewBox="0 0 147 104" enable-background="new 0 0 147 104" xml:space="preserve">
<g>
	<path fill="#6FB906" d="M100.1,88.6"/>
</g>
<g>
	<path fill="#2DB1F3" d="M134.2,9.7l2.6,1c2.4,1,3.3,3.8,1.9,6l-9.7,15.1c-1.2,1.9-4.1,0.7-3.7-1.5l3.4-17.6
		C129.2,10.2,131.8,8.7,134.2,9.7z"/>
	<circle fill="#2DB1F3" cx="123.5" cy="40.1" r="3.8"/>
</g>
<g>
	<path fill="#2DB1F3" d="M117.9,10.2l2.1,0.6c1.9,0.5,2.9,2.7,2,4.4l-6.2,12.4c-0.8,1.6-3.1,0.9-3-0.8l1.1-13.8
		C114.1,11,116,9.6,117.9,10.2z"/>
	<circle fill="#2DB1F3" cx="112.3" cy="34.4" r="2.9"/>
</g>
<g>
	<g>
		
			<linearGradient id="SVGID_1_" gradientUnits="userSpaceOnUse" x1="386.7505" y1="531.5201" x2="386.7505" y2="546.914" gradientTransform="matrix(1 0 0 -1 -308.1936 562.1324)">
			<stop  offset="0" style="stop-color:#127FD2"/>
			<stop  offset="0.4781" style="stop-color:#1381D5"/>
			<stop  offset="0.7653" style="stop-color:#1489DD"/>
			<stop  offset="1" style="stop-color:#1797EB"/>
		</linearGradient>
		<path fill="url(#SVGID_1_)" d="M66.3,30.6h19.4l5.3-0.1L90.3,27c-2.3,3.3-5-0.1-6.6-1.7s-3.9-3.4-4.8-7c-0.5-1.7-1.6-3.8-3.7-2.8
			c-2.1,1-3.4,2.9-4.9,4.6c-1.2,1.6-2.8,2.8-4.3,2.8"/>
		
			<linearGradient id="SVGID_2_" gradientUnits="userSpaceOnUse" x1="357.5024" y1="531.5201" x2="357.5024" y2="546.9161" gradientTransform="matrix(1 0 0 -1 -308.1936 562.1324)">
			<stop  offset="0" style="stop-color:#127FD2"/>
			<stop  offset="0.4781" style="stop-color:#1381D5"/>
			<stop  offset="0.7653" style="stop-color:#1489DD"/>
			<stop  offset="1" style="stop-color:#1797EB"/>
		</linearGradient>
		<path fill="url(#SVGID_2_)" d="M61.6,23c-1.6,0-3.1-1.3-4.3-2.8c-1.3-1.7-2.8-3.8-4.9-4.6c-2-0.9-3.2,1.1-3.7,2.8
			c-0.9,3.7-3.1,5.4-4.6,7c-1.6,1.6-4.3,5-6.6,1.7L37,30.5l5.3,0.1h19.3h0.1"/>
		<g>
			
				<linearGradient id="SVGID_3_" gradientUnits="userSpaceOnUse" x1="361.8086" y1="545.4412" x2="347.1295" y2="533.124" gradientTransform="matrix(1 0 0 -1 -308.1936 562.1324)">
				<stop  offset="0" style="stop-color:#2DB1F3"/>
				<stop  offset="1" style="stop-color:#1797EB;stop-opacity:0.5"/>
			</linearGradient>
			<path fill="url(#SVGID_3_)" d="M50,17.5c0.6-1.8,1.6-2.4,2.7-2c-0.1,0-0.1-0.1-0.2-0.1c-2-0.9-3.2,1.1-3.7,2.8
				c-0.9,3.7-3.1,5.4-4.6,7c-1.6,1.6-4.3,5-6.6,1.7c1.1,2.8,3.9,3.5,7.6,0.7C48.8,24.9,49.4,19.4,50,17.5z"/>
			
				<linearGradient id="SVGID_4_" gradientUnits="userSpaceOnUse" x1="195.4575" y1="533.2686" x2="195.4575" y2="523.1141" gradientTransform="matrix(0.9397 0.342 0.342 -0.9397 -282.1894 452.1173)">
				<stop  offset="0" style="stop-color:#2DB1F3"/>
				<stop  offset="1" style="stop-color:#1797EB;stop-opacity:0.5"/>
			</linearGradient>
			<path fill="url(#SVGID_4_)" d="M77.8,17.5c-0.6-1.8-1.6-2.4-2.7-2c0.1,0,0.1-0.1,0.2-0.1c2-0.9,3.2,1.1,3.7,2.8
				c0.9,3.7,3.1,5.4,4.6,7c1.6,1.6,4.3,5,6.6,1.7c-1.1,2.8-3.9,3.5-7.6,0.7C79.1,24.9,78.4,19.4,77.8,17.5z"/>
		</g>
		
			<linearGradient id="SVGID_5_" gradientUnits="userSpaceOnUse" x1="-336.3275" y1="435.5216" x2="-336.3275" y2="552.3379" gradientTransform="matrix(-1 0 0 -1 -272.3641 567.1616)">
			<stop  offset="0" style="stop-color:#1797EB"/>
			<stop  offset="0.4556" style="stop-color:#1FA0EE"/>
			<stop  offset="1" style="stop-color:#2DB1F3"/>
		</linearGradient>
		<path fill="url(#SVGID_5_)" d="M64,131.6c36.9,0,61.1-21.1,61.1-50.7c0-18-12.7-35-24.2-44c-8.4-7.2-12.2-14.8-11.4-20
			c0.2-2.1-2.7-2.8-4.8-1.5c-4.9,3.1-5.9,11.2-9.9,10.9c-1.1-0.1-2.9-1.6-4.2-2.6c-2.2-1.7-4.3-4-6.7-4l0,0c-2.4,0-4.5,2.2-6.7,4
			c-1.2,1-3.1,2.4-4.2,2.6c-4,0.4-5-7.8-9.9-10.9c-2.1-1.3-5-0.6-4.8,1.5c0.9,5.3-3.1,12.8-11.5,20C15.6,45.9,2.9,63,2.9,81
			C2.9,110.6,27.1,131.6,64,131.6L64,131.6z"/>
		<path fill="#2DB1F3" d="M118.7,88.5c0.5-1.7-0.4-2-1-1.5c-0.6,0.5-1.1,1.1-1.7,1.2c-0.5,0.1-0.9-0.4-0.5-1.3
			c1.3-4.2,2.2-9.5,1.7-14.9c-1.3-15-10.3-27-19.4-34.1C90.3,32.1,82.3,27.1,64,27.1S37.6,32.1,30,38C20.9,45.1,11.9,57.1,10.6,72
			c-0.5,5.4,0.4,10.7,1.7,14.9c0.4,0.9,0,1.5-0.5,1.3c-0.6-0.2-1-0.7-1.7-1.2c-0.6-0.5-1.5-0.2-1,1.5c0.9,3.2,3.7,7.2,6.2,10.3
			c0.7,0.9,0.4,1.6-0.4,1.2c-0.6-0.2-0.7-0.4-1.2-0.7c-0.7-0.5-1.5,0.1-0.2,2.2c3.8,6.2,10.3,11.6,16.4,15.1
			c10.3,6,22.3,8.1,34.1,8.1s23.8-2.2,34.1-8.1c6.2-3.7,12.7-8.9,16.4-15.1c1.3-2.2,0.5-2.7-0.2-2.2c-0.5,0.4-0.6,0.5-1.2,0.7
			c-0.7,0.2-1.1-0.4-0.4-1.2C115,95.7,117.9,91.7,118.7,88.5z"/>
		<path fill="#2DB1F3" d="M80.1,31.5L80.1,31.5h10c-3.4-3.8-0.5-10.7-0.5-10.7c0-0.1,0-0.2,0-0.5c-0.2-1.2-0.2-2.3-0.1-3.4
			c0.2-2.1-2.7-2.8-4.8-1.5c-4.9,3.1-5.9,11.2-9.9,10.9c-1.1-0.1-2.9-1.6-4.2-2.6c-2.2-1.6-4.3-3.9-6.7-3.9c-2.4,0-4.5,2.2-6.7,4
			c-1.2,1-3.1,2.4-4.2,2.6c-4,0.4-5-7.8-9.9-10.9c-2.1-1.3-5-0.6-4.8,1.5c0.1,1.1,0.1,2.2-0.1,3.4c0,0.1,0,0.2,0,0.4
			c0,0,3.4,7,0,10.7h9.4l0,0C47.7,31.5,80.1,31.5,80.1,31.5z"/>
		<path fill="#2DB1F3" d="M43.1,27.8H64V38l-38.6,4.3c4-4.3,12.1-11.4,13.1-21.5L43.1,27.8z"/>
		<path fill="#2DB1F3" d="M89.5,20.8c1,10.1,9,17.1,13.1,21.5L64,38V27.8h20.9L89.5,20.8z"/>
		
			<linearGradient id="SVGID_6_" gradientUnits="userSpaceOnUse" x1="-588.4236" y1="91.1763" x2="-588.4236" y2="74.4755" gradientTransform="matrix(-1 0 0 -1 -501.9899 106)">
			<stop  offset="0" style="stop-color:#1797EB"/>
			<stop  offset="1" style="stop-color:#2DB1F3;stop-opacity:0"/>
		</linearGradient>
		<path fill="url(#SVGID_6_)" d="M77.4,31.5v-6.4c2.2-2.3,3.7-7.4,7.2-9.6c2.1-1.3,5-0.6,4.8,1.5c-0.5,3.9,1.5,9.2,6.1,14.5H77.4z"
			/>
		
			<linearGradient id="SVGID_7_" gradientUnits="userSpaceOnUse" x1="41.5541" y1="91.1763" x2="41.5541" y2="74.4755" gradientTransform="matrix(1 0 0 -1 0 106)">
			<stop  offset="0" style="stop-color:#1797EB"/>
			<stop  offset="1" style="stop-color:#2DB1F3;stop-opacity:0"/>
		</linearGradient>
		<path fill="url(#SVGID_7_)" d="M50.5,31.5v-6.4c-2.2-2.3-3.7-7.4-7.2-9.6c-2.1-1.3-5-0.6-4.8,1.5c0.6,3.9-1.3,9.2-6,14.5H50.5z"/>
		<path fill="#2DB1F3" d="M47.7,25.8c0.6-0.6,1.2-1.1,2-1.7c-1.7-2.6-3.3-6.7-6.4-8.7c-1-0.6-2.1-0.9-2.9-0.6
			c2.4-0.6,5.1,5.6,5.5,9.9C45.9,27.1,47.2,26.2,47.7,25.8z"/>
		<path opacity="0.4" fill="#5ECAF7" enable-background="new    " d="M47.7,25.8c0.6-0.6,1.2-1.1,2-1.7c-1.7-2.6-3.3-6.7-6.4-8.7
			c-1-0.6-2.1-0.9-2.9-0.6c2.4-0.6,5.1,5.6,5.5,9.9C45.9,27.1,47.2,26.2,47.7,25.8z"/>
		
			<linearGradient id="SVGID_8_" gradientUnits="userSpaceOnUse" x1="45.0346" y1="91.2347" x2="45.0346" y2="79.6598" gradientTransform="matrix(1 0 0 -1 0 106)">
			<stop  offset="0" style="stop-color:#BCE8F7;stop-opacity:0.5"/>
			<stop  offset="1" style="stop-color:#BCE8F7;stop-opacity:0.1"/>
		</linearGradient>
		<path fill="url(#SVGID_8_)" d="M47.7,25.8c0.6-0.6,1.2-1.1,2-1.7c-1.7-2.6-3.3-6.7-6.4-8.7c-1-0.6-2.1-0.9-2.9-0.6
			c2.4-0.6,5.1,5.6,5.5,9.9C45.9,27.1,47.2,26.2,47.7,25.8z"/>
		<path fill="#2DB1F3" d="M80.2,25.8c-0.6-0.6-1.2-1.1-2-1.7c1.7-2.6,3.3-6.7,6.4-8.7c1-0.6,2.1-0.9,2.9-0.6
			c-2.4-0.6-5.1,5.5-5.5,9.9C82,27.1,80.7,26.2,80.2,25.8z"/>
		<path opacity="0.4" fill="#5ECAF7" enable-background="new    " d="M80.2,25.8c-0.6-0.6-1.2-1.1-2-1.7c1.7-2.6,3.3-6.7,6.4-8.7
			c1-0.6,2.1-0.9,2.9-0.6c-2.4-0.6-5.1,5.5-5.5,9.9C82,27.1,80.7,26.2,80.2,25.8z"/>
		
			<linearGradient id="SVGID_9_" gradientUnits="userSpaceOnUse" x1="82.8922" y1="91.2308" x2="82.8922" y2="79.6598" gradientTransform="matrix(1 0 0 -1 0 106)">
			<stop  offset="0" style="stop-color:#BCE8F7;stop-opacity:0.5"/>
			<stop  offset="1" style="stop-color:#BCE8F7;stop-opacity:0.1"/>
		</linearGradient>
		<path fill="url(#SVGID_9_)" d="M80.2,25.8c-0.6-0.6-1.2-1.1-2-1.7c1.7-2.6,3.3-6.7,6.4-8.7c1-0.6,2.1-0.9,2.9-0.6
			c-2.4-0.6-5.1,5.5-5.5,9.9C82,27.1,80.7,26.2,80.2,25.8z"/>
		<path fill="#2DB1F3" d="M60.7,13.5c-9.2,9.4-17.2,16-26,23.4H64h29.3c-8.8-7.3-16.9-14-26-23.4C65.4,11.7,62.5,11.7,60.7,13.5z"/>
		
			<linearGradient id="SVGID_10_" gradientUnits="userSpaceOnUse" x1="63.9634" y1="93.8668" x2="63.9634" y2="74.487" gradientTransform="matrix(1 0 0 -1 0 106)">
			<stop  offset="0" style="stop-color:#1797EB"/>
			<stop  offset="1" style="stop-color:#2DB1F3;stop-opacity:0"/>
		</linearGradient>
		<path opacity="0.75" fill="url(#SVGID_10_)" enable-background="new    " d="M60.7,13.5c-7,7.1-13.2,12.6-19.5,18h45.7
			c-6.4-5.4-12.7-10.9-19.5-18C65.4,11.7,62.5,11.7,60.7,13.5z"/>
	</g>
	<g>
		<path fill="#FFFFFF" d="M50.5,90.6c-0.9-7.3-7.8-14-15.5-14.3c-7.8-0.2-13.4,5.7-12.7,13.1c0.6,6.4,6.7,12.3,13.9,12.8
			C44.1,102.8,51.4,98.3,50.5,90.6z"/>
		<g>
			<g>
				<defs>
					<path id="SVGID_11_" d="M50.5,90.6c-0.9-7.3-7.8-14-15.5-14.3c-7.8-0.2-13.4,5.7-12.7,13.1c0.6,6.4,6.7,12.3,13.9,12.8
						C44.1,102.8,51.4,98.3,50.5,90.6z"/>
				</defs>
				<clipPath id="SVGID_12_">
					<use xlink:href="#SVGID_11_"  overflow="visible"/>
				</clipPath>
				<g clip-path="url(#SVGID_12_)">
					
						<linearGradient id="SVGID_13_" gradientUnits="userSpaceOnUse" x1="38.1958" y1="28.9481" x2="38.1958" y2="6.0519" gradientTransform="matrix(1 0 0 -1 0 106)">
						<stop  offset="0" style="stop-color:#261616"/>
						<stop  offset="1" style="stop-color:#4A291E"/>
					</linearGradient>
					<circle fill="url(#SVGID_13_)" cx="38.2" cy="88.5" r="11.5"/>
					
						<radialGradient id="SVGID_14_" cx="16.7985" cy="-6.4433" r="10.676" gradientTransform="matrix(0.7682 -0.6402 -0.2786 -0.3343 18.3978 91.5692)" gradientUnits="userSpaceOnUse">
						<stop  offset="0" style="stop-color:#FFFFFF;stop-opacity:0.8"/>
						<stop  offset="1" style="stop-color:#FFFFFF;stop-opacity:0.3"/>
					</radialGradient>
					<path opacity="0.4" fill="url(#SVGID_14_)" enable-background="new    " d="M32.6,89.6c0.5-3.4,3.3-6.2,6.7-6.7
						c0.1,0,0.1,0,0.2,0c2.3-0.4,2.4-3.7,0.1-4c-1-0.1-1.8-0.1-2.9,0c-4.3,0.6-7.7,4-8.3,8.3c-0.1,1-0.1,2,0,2.9
						c0.4,2.3,3.8,2.3,4-0.1C32.5,89.8,32.5,89.8,32.6,89.6z"/>
					<circle opacity="0.5" enable-background="new    " cx="39.8" cy="87.7" r="8.2"/>
					<path fill="#FFFFFF" d="M31.5,82.5c0.2-0.5,0.7-0.9,1.1-1.1c0.5-0.4,1.1-0.5,1.7-0.5c0.7,0.1,1.6,0.5,1.7,1.3
						c0.1,0.7-0.6,1.2-1.2,1.6c-0.4,0.4-0.9,0.6-1.1,1.1c-0.2,0.4-0.5,0.6-0.9,0.9C32,86.3,31.1,86,31,85.1
						C30.9,84.1,31,83.3,31.5,82.5z"/>
					
						<linearGradient id="SVGID_15_" gradientUnits="userSpaceOnUse" x1="182.6686" y1="443.4259" x2="185.5026" y2="448.3345" gradientTransform="matrix(0.9397 0.342 0.342 -0.9397 -281.1076 450.533)">
						<stop  offset="0" style="stop-color:#FFFFFF;stop-opacity:0.75"/>
						<stop  offset="1" style="stop-color:#FFFFFF;stop-opacity:0.25"/>
					</linearGradient>
					<path opacity="0.25" fill="url(#SVGID_15_)" enable-background="new    " d="M45.5,92c0.9,0,1.1,1.2,1,2
						c-0.4,1.3-1.5,2.3-2.8,2.7c-0.9,0.2-2-0.1-2.1-1.1c-0.1-1,1-1.5,1.6-2C43.8,93,44.8,91.8,45.5,92z"/>
				</g>
			</g>
		</g>
		<path fill="#FFFFFF" d="M77.3,90.6c0.9-7.3,7.8-14,15.5-14.3c7.8-0.2,13.4,5.7,12.7,13.1c-0.6,6.4-6.7,12.3-13.9,12.8
			C83.9,102.8,76.5,98.3,77.3,90.6z"/>
		<g>
			<g>
				<defs>
					<path id="SVGID_16_" d="M77.3,90.6c0.9-7.3,7.8-14,15.5-14.3c7.8-0.2,13.4,5.7,12.7,13.1c-0.6,6.4-6.7,12.3-13.9,12.8
						C83.9,102.8,76.5,98.3,77.3,90.6z"/>
				</defs>
				<clipPath id="SVGID_17_">
					<use xlink:href="#SVGID_16_"  overflow="visible"/>
				</clipPath>
				<g clip-path="url(#SVGID_17_)">
					
						<linearGradient id="SVGID_18_" gradientUnits="userSpaceOnUse" x1="-135.9083" y1="28.9481" x2="-135.9083" y2="6.0519" gradientTransform="matrix(1 0 0 -1 225.6392 106)">
						<stop  offset="0" style="stop-color:#261616"/>
						<stop  offset="1" style="stop-color:#4A291E"/>
					</linearGradient>
					<circle fill="url(#SVGID_18_)" cx="89.7" cy="88.5" r="11.5"/>
					
						<radialGradient id="SVGID_19_" cx="66.2537" cy="-20.2" r="10.676" gradientTransform="matrix(0.7682 -0.6402 -0.2786 -0.3343 28.1961 118.6317)" gradientUnits="userSpaceOnUse">
						<stop  offset="0" style="stop-color:#FFFFFF;stop-opacity:0.8"/>
						<stop  offset="1" style="stop-color:#FFFFFF;stop-opacity:0.3"/>
					</radialGradient>
					<path opacity="0.4" fill="url(#SVGID_19_)" enable-background="new    " d="M84.1,89.6c0.5-3.4,3.3-6.2,6.7-6.7
						c0.1,0,0.1,0,0.2,0c2.3-0.4,2.4-3.7,0.1-4c-1-0.1-1.8-0.1-2.9,0c-4.3,0.6-7.7,4-8.3,8.3c-0.1,1-0.1,2,0,2.9
						c0.4,2.3,3.8,2.3,4-0.1C84.1,89.8,84.1,89.8,84.1,89.6z"/>
					<circle opacity="0.5" enable-background="new    " cx="91.4" cy="87.7" r="8.2"/>
					<path fill="#FFFFFF" d="M83.1,82.5c0.2-0.5,0.7-0.9,1.1-1.1c0.5-0.4,1.1-0.5,1.7-0.5c0.7,0.1,1.6,0.5,1.7,1.3
						c0.1,0.7-0.6,1.2-1.2,1.6c-0.4,0.4-0.9,0.6-1.1,1.1c-0.2,0.4-0.5,0.6-0.9,0.9c-0.9,0.5-1.7,0.1-1.8-0.7
						C82.4,84.1,82.6,83.3,83.1,82.5z"/>
					
						<linearGradient id="SVGID_20_" gradientUnits="userSpaceOnUse" x1="19.1557" y1="383.9029" x2="21.9896" y2="388.8114" gradientTransform="matrix(0.9397 0.342 0.342 -0.9397 -55.4684 450.533)">
						<stop  offset="0" style="stop-color:#FFFFFF;stop-opacity:0.75"/>
						<stop  offset="1" style="stop-color:#FFFFFF;stop-opacity:0.25"/>
					</linearGradient>
					<path opacity="0.25" fill="url(#SVGID_20_)" enable-background="new    " d="M97.2,92c0.9,0,1.1,1.2,1,2
						c-0.4,1.3-1.5,2.3-2.8,2.7c-0.9,0.2-2-0.1-2.1-1.1s1-1.5,1.6-2C95.5,93,96.3,91.8,97.2,92z"/>
				</g>
			</g>
		</g>
	</g>
</g>
</svg>
